Bahiana.ufo
<glyph name="ampersand" format="1">
  <advance width="359"/>
  <unicode hex="0026"/>
  <outline>
    <contour>
      <point x="38" y="292" type="line"/>
      <point x="38" y="0" type="line"/>
      <point x="248" y="0" type="line"/>
      <point x="294" y="42" type="line"/>
      <point x="294" y="319" type="line"/>
      <point x="272" y="339" type="line"/>
      <point x="358" y="348" type="line"/>
      <point x="348" y="394" type="line"/>
      <point x="121" y="394" type="line"/>
      <point x="111" y="641" type="line" smooth="yes"/>
      <point x="111" y="648"/>
      <point x="114" y="651"/>
      <point x="121" y="651" type="curve" smooth="yes"/>
      <point x="124" y="651"/>
      <point x="125" y="651"/>
      <point x="126" y="650" type="curve"/>
      <point x="212" y="638" type="line"/>
      <point x="223" y="638"/>
      <point x="228" y="636"/>
      <point x="228" y="632" type="curve" smooth="yes"/>
      <point x="237" y="532" type="line"/>
      <point x="284" y="532" type="line"/>
      <point x="284" y="710" type="line"/>
      <point x="51" y="710" type="line"/>
      <point x="41" y="407" type="line"/>
      <point x="77" y="352" type="line"/>
      <point x="44" y="316" type="line"/>
    </contour>
    <contour>
      <point x="111" y="60" type="line"/>
      <point x="120" y="323" type="line"/>
      <point x="231" y="334" type="line"/>
      <point x="222" y="65" type="line"/>
    </contour>
  </outline>
</glyph>
<glyph name="parenleft" format="1">
  <advance width="248"/>
  <unicode hex="0028"/>
  <outline>
    <contour>
      <point x="130" y="-76" type="line"/>
      <point x="195" y="-49" type="line"/>
      <point x="105" y="211" type="line"/>
      <point x="105" y="441" type="line"/>
      <point x="198" y="742" type="line"/>
      <point x="130" y="762" type="line"/>
      <point x="40" y="404" type="line"/>
      <point x="46" y="222" type="line"/>
    </contour>
  </outline>
</glyph>
<glyph name="plus" format="1">
  <advance width="339"/>
  <unicode hex="002B"/>
  <outline>
    <contour>
      <point x="139" y="516" type="line"/>
      <point x="145" y="361" type="line"/>
      <point x="10" y="366" type="line"/>
      <point x="10" y="308" type="line"/>
      <point x="140" y="308" type="line"/>
      <point x="140" y="158" type="line"/>
      <point x="188" y="158" type="line"/>
      <point x="198" y="308" type="line"/>
      <point x="328" y="308" type="line"/>
      <point x="328" y="357" type="line"/>
      <point x="198" y="366" type="line"/>
      <point x="198" y="516" type="line"/>
    </contour>
  </outline>
</glyph>
<glyph name="comma" format="1">
  <advance width="145"/>
  <unicode hex="002C"/>
  <outline>
    <contour>
      <point x="61" y="0" type="line"/>
      <point x="20" y="-95" type="line"/>
      <point x="63" y="-110" type="line"/>
      <point x="111" y="0" type="line"/>
      <point x="115" y="96" type="line"/>
      <point x="29" y="92" type="line"/>
    </contour>
  </outline>
</glyph>
<glyph name="hyphen" format="1">
  <advance width="339"/>
  <unicode hex="002D"/>
  <outline>
    <contour>
      <point x="10" y="366" type="line"/>
      <point x="13" y="308" type="line"/>
      <point x="328" y="308" type="line"/>
      <point x="328" y="357" type="line"/>
    </contour>
  </outline>
</glyph>
<glyph name="period" format="1">
  <advance width="206"/>
  <unicode hex="002E"/>
  <outline>
    <contour>
      <point x="60" y="0" type="line"/>
      <point x="152" y="0" type="line"/>
      <point x="156" y="96" type="line"/>
      <point x="60" y="92" type="line"/>
    </contour>
  </outline>
</glyph>
<glyph name="slash" format="1">
  <advance width="246"/>
  <unicode hex="002F"/>
  <outline>
    <contour>
      <point x="30" y="0" type="line"/>
      <point x="88" y="-14" type="line"/>
      <point x="216" y="710" type="line"/>
      <point x="165" y="720" type="line"/>
    </contour>
  </outline>
</glyph>
<glyph name="one" format="1">
  <advance width="339"/>
  <unicode hex="0031"/>
  <outline>
    <contour>
      <point x="34" y="0" type="line"/>
      <point x="313" y="0" type="line"/>
      <point x="317" y="64" type="line"/>
      <point x="223" y="61" type="line"/>
      <point x="237" y="711" type="line"/>
      <point x="26" y="675" type="line"/>
      <point x="36" y="619" type="line"/>
      <point x="161" y="628" type="line"/>
      <point x="142" y="58" type="line"/>
      <point x="29" y="54" type="line"/>
    </contour>
  </outline>
</glyph>
<glyph name="two" format="1">
  <advance width="339"/>
  <unicode hex="0032"/>
  <outline>
    <contour>
      <point x="66" y="301" type="line"/>
      <point x="66" y="301"/>
      <point x="66" y="0"/>
      <point x="66" y="0" type="curve"/>
      <point x="295" y="0" type="line"/>
      <point x="295" y="68" type="line"/>
      <point x="134" y="68" type="line"/>
      <point x="156" y="287" type="line"/>
      <point x="274" y="410" type="line"/>
      <point x="274" y="663" type="line" smooth="yes"/>
      <point x="274" y="663"/>
      <point x="234" y="710"/>
      <point x="234" y="710" type="curve" smooth="yes"/>
      <point x="57" y="710" type="line"/>
      <point x="57" y="563" type="line"/>
      <point x="105" y="563" type="line"/>
      <point x="120" y="650" type="line"/>
      <point x="204" y="650" type="line"/>
      <point x="190" y="434" type="line"/>
    </contour>
  </outline>
</glyph>
<glyph name="five" format="1">
  <advance width="339"/>
  <unicode hex="0035"/>
  <outline>
    <contour>
      <point x="255" y="649" type="line"/>
      <point x="270" y="710" type="line"/>
      <point x="84" y="710" type="line"/>
      <point x="42" y="679" type="line"/>
      <point x="42" y="426" type="line"/>
      <point x="84" y="356" type="line"/>
      <point x="192" y="356" type="line" smooth="yes"/>
      <point x="200" y="356"/>
      <point x="204" y="354"/>
      <point x="204" y="350" type="curve" smooth="yes"/>
      <point x="219" y="72" type="line" smooth="yes"/>
      <point x="219" y="65"/>
      <point x="213" y="55"/>
      <point x="204" y="55" type="curve"/>
      <point x="116" y="81" type="line"/>
      <point x="94" y="196" type="line"/>
      <point x="42" y="196" type="line"/>
      <point x="42" y="0" type="line"/>
      <point x="300" y="0" type="line"/>
      <point x="273" y="434" type="line"/>
      <point x="118" y="414" type="line"/>
      <point x="109" y="483" type="line"/>
      <point x="109" y="629" type="line"/>
    </contour>
  </outline>
</glyph>
<glyph name="six" format="1">
  <advance width="339"/>
  <unicode hex="0036"/>
  <outline>
    <contour>
      <point x="217" y="399" type="line"/>
      <point x="126" y="399" type="line"/>
      <point x="126" y="620" type="line"/>
      <point x="150" y="643" type="line"/>
      <point x="291" y="615" type="line"/>
      <point x="291" y="700" type="line"/>
      <point x="64" y="710" type="line"/>
      <point x="41" y="0" type="line"/>
      <point x="281" y="0" type="line"/>
      <point x="301" y="362" type="line"/>
    </contour>
    <contour>
      <point x="217" y="80" type="line"/>
      <point x="126" y="60" type="line"/>
      <point x="126" y="348" type="line"/>
      <point x="217" y="327" type="line"/>
    </contour>
  </outline>
</glyph>
<glyph name="colon" format="1">
  <advance width="206"/>
  <unicode hex="003A"/>
  <outline>
    <contour>
      <point x="64" y="394" type="line"/>
      <point x="156" y="394" type="line"/>
      <point x="156" y="486" type="line"/>
      <point x="60" y="490" type="line"/>
    </contour>
    <contour>
      <point x="156" y="96" type="line"/>
      <point x="60" y="92" type="line"/>
      <point x="60" y="0" type="line"/>
      <point x="152" y="0" type="line"/>
    </contour>
  </outline>
</glyph>
<glyph name="at" format="1">
  <advance width="833"/>
  <unicode hex="0040"/>
  <outline>
    <contour>
      <point x="469" y="636" type="line"/>
      <point x="436" y="175" type="line"/>
      <point x="378" y="175" type="line"/>
      <point x="391" y="570" type="line"/>
      <point x="207" y="570" type="line"/>
      <point x="186" y="502" type="line"/>
      <point x="306" y="516" type="line"/>
      <point x="337" y="489" type="line"/>
      <point x="332" y="381" type="line"/>
      <point x="260" y="381" type="line"/>
      <point x="176" y="327" type="line"/>
      <point x="192" y="133" type="line"/>
      <point x="496" y="113" type="line"/>
      <point x="526" y="710" type="line"/>
      <point x="59" y="710" type="line"/>
      <point x="59" y="0" type="line"/>
      <point x="465" y="0" type="line"/>
      <point x="475" y="37" type="line"/>
      <point x="124" y="52" type="line"/>
      <point x="115" y="61" type="line"/>
      <point x="134" y="648" type="line"/>
      <point x="143" y="654" type="line"/>
      <point x="460" y="642" type="line"/>
    </contour>
    <contour>
      <point x="250" y="309" type="line"/>
      <point x="333" y="330" type="line"/>
      <point x="328" y="193" type="line"/>
      <point x="246" y="213" type="line"/>
    </contour>
  </outline>
</glyph>
<glyph name="B" format="1">
  <advance width="306"/>
  <unicode hex="0042"/>
  <outline>
    <contour>
      <point x="219" y="379"/>
      <point x="221" y="382"/>
      <point x="221" y="397" type="curve"/>
      <point x="250" y="652" type="line"/>
      <point x="250" y="653"/>
      <point x="251" y="661"/>
      <point x="251" y="662" type="curve" smooth="yes"/>
      <point x="251" y="705"/>
      <point x="188" y="710"/>
      <point x="163" y="710" type="curve" smooth="yes"/>
      <point x="50" y="710" type="line"/>
      <point x="50" y="20" type="line"/>
      <point x="186" y="20" type="line" smooth="yes"/>
      <point x="198" y="20"/>
      <point x="261" y="21"/>
      <point x="261" y="50" type="curve" smooth="yes"/>
      <point x="261" y="352" type="line" smooth="yes"/>
      <point x="261" y="365"/>
      <point x="233" y="370"/>
      <point x="210" y="374" type="curve"/>
    </contour>
    <contour>
      <point x="107" y="647" type="line" smooth="yes"/>
      <point x="107" y="650"/>
      <point x="111" y="651"/>
      <point x="119" y="651" type="curve" smooth="yes"/>
      <point x="162" y="651" type="line" smooth="yes"/>
      <point x="171" y="651"/>
      <point x="176" y="650"/>
      <point x="176" y="647" type="curve" smooth="yes"/>
      <point x="166" y="431" type="line" smooth="yes"/>
      <point x="166" y="426"/>
      <point x="163" y="423"/>
      <point x="157" y="422" type="curve"/>
      <point x="119" y="407" type="line"/>
      <point x="111" y="407"/>
      <point x="107" y="410"/>
      <point x="107" y="415" type="curve" smooth="yes"/>
    </contour>
    <contour>
      <point x="140" y="76" type="line" smooth="yes"/>
      <point x="135" y="76"/>
      <point x="129" y="78"/>
      <point x="129" y="79" type="curve"/>
      <point x="129" y="331" type="line"/>
      <point x="129" y="332"/>
      <point x="135" y="337"/>
      <point x="140" y="337" type="curve" smooth="yes"/>
      <point x="182" y="337" type="line" smooth="yes"/>
      <point x="187" y="337"/>
      <point x="189" y="336"/>
      <point x="189" y="334" type="curve" smooth="yes"/>
      <point x="189" y="333"/>
      <point x="188" y="332"/>
      <point x="186" y="331" type="curve"/>
      <point x="186" y="106" type="line"/>
      <point x="187" y="106"/>
      <point x="188" y="104"/>
      <point x="188" y="100" type="curve" smooth="yes"/>
      <point x="188" y="92"/>
      <point x="182" y="76"/>
      <point x="155" y="76" type="curve" smooth="yes"/>
    </contour>
  </outline>
</glyph>
<glyph name="H" format="1">
  <advance width="325"/>
  <unicode hex="0048"/>
  <outline>
    <contour>
      <point x="220" y="-20" type="line"/>
      <point x="285" y="-20" type="line"/>
      <point x="264" y="624" type="line"/>
      <point x="279" y="648" type="line"/>
      <point x="279" y="690" type="line"/>
      <point x="192" y="690" type="line"/>
      <point x="192" y="400" type="line"/>
      <point x="118" y="385" type="line"/>
      <point x="118" y="710" type="line"/>
      <point x="37" y="710" type="line"/>
      <point x="60" y="0" type="line"/>
      <point x="130" y="0" type="line"/>
      <point x="119" y="317" type="line"/>
      <point x="199" y="326" type="line"/>
    </contour>
    <contour>
      <point x="163" y="355" type="move" name="center"/>
    </contour>
    <contour>
      <point x="163" y="710" type="move" name="top"/>
    </contour>
  </outline>
</glyph>
<glyph name="J" format="1">
  <advance width="301"/>
  <unicode hex="004A"/>
  <outline>
    <contour>
      <point x="251" y="710" type="line"/>
      <point x="155" y="710" type="line"/>
      <point x="155" y="664" type="line"/>
      <point x="173" y="616" type="line"/>
      <point x="173" y="49" type="line"/>
      <point x="109" y="54" type="line"/>
      <point x="104" y="192" type="line"/>
      <point x="25" y="172" type="line"/>
      <point x="61" y="0" type="line"/>
      <point x="242" y="0" type="line"/>
    </contour>
    <contour>
      <point x="151" y="710" type="move" name="top"/>
    </contour>
  </outline>
</glyph>
<glyph name="K" format="1">
  <advance width="311"/>
  <unicode hex="004B"/>
  <outline>
    <contour>
      <point x="266" y="314" type="line"/>
      <point x="197" y="354" type="line"/>
      <point x="245" y="386" type="line"/>
      <point x="287" y="710" type="line"/>
      <point x="201" y="710" type="line"/>
      <point x="191" y="411" type="line"/>
      <point x="146" y="375" type="line"/>
      <point x="120" y="390" type="line"/>
      <point x="120" y="690" type="line"/>
      <point x="42" y="690" type="line"/>
      <point x="65" y="-20" type="line"/>
      <point x="132" y="-20" type="line"/>
      <point x="132" y="306" type="line"/>
      <point x="143" y="314" type="line"/>
      <point x="197" y="264" type="line"/>
      <point x="197" y="-20" type="line"/>
      <point x="277" y="-20" type="line"/>
    </contour>
    <contour>
      <point x="156" y="710" type="move" name="top"/>
    </contour>
    <contour>
      <point x="156" y="0" type="move" name="bottom"/>
    </contour>
  </outline>
</glyph>
<glyph name="M" format="1">
  <advance width="352"/>
  <unicode hex="004D"/>
  <outline>
    <contour>
      <point x="82" y="-20" type="line"/>
      <point x="82" y="610" type="line"/>
      <point x="86" y="610" type="line"/>
      <point x="157" y="181" type="line"/>
      <point x="187" y="181" type="line"/>
      <point x="274" y="661" type="line"/>
      <point x="278" y="661" type="line"/>
      <point x="256" y="0" type="line"/>
      <point x="322" y="0" type="line"/>
      <point x="322" y="730" type="line"/>
      <point x="225" y="730" type="line"/>
      <point x="178" y="332" type="line"/>
      <point x="172" y="332" type="line"/>
      <point x="120" y="710" type="line"/>
      <point x="30" y="710" type="line"/>
      <point x="30" y="-20" type="line"/>
    </contour>
  </outline>
</glyph>
<glyph name="N" format="1">
  <advance width="344"/>
  <unicode hex="004E"/>
  <outline>
    <contour>
      <point x="320" y="710" type="line"/>
      <point x="262" y="710" type="line"/>
      <point x="240" y="58" type="line"/>
      <point x="236" y="58" type="line"/>
      <point x="146" y="710" type="line"/>
      <point x="30" y="710" type="line"/>
      <point x="30" y="0" type="line"/>
      <point x="89" y="0" type="line"/>
      <point x="89" y="651" type="line"/>
      <point x="93" y="651" type="line"/>
      <point x="195" y="0" type="line"/>
      <point x="310" y="0" type="line"/>
    </contour>
    <contour>
      <point x="172" y="710" type="move" name="top"/>
    </contour>
    <contour>
      <point x="172" y="0" type="move" name="bottom"/>
    </contour>
  </outline>
</glyph>
<glyph name="Q" format="1">
  <advance width="318"/>
  <unicode hex="0051"/>
  <outline>
    <contour>
      <point x="50" y="664" type="line"/>
      <point x="50" y="30" type="line"/>
      <point x="163" y="30" type="line"/>
      <point x="207" y="-114" type="line"/>
      <point x="227" y="-131" type="line"/>
      <point x="277" y="-124" type="line"/>
      <point x="213" y="30" type="line"/>
      <point x="268" y="30" type="line"/>
      <point x="268" y="673" type="line"/>
      <point x="228" y="710" type="line"/>
      <point x="88" y="710" type="line"/>
    </contour>
    <contour>
      <point x="201" y="106" type="line" smooth="yes"/>
      <point x="201" y="103"/>
      <point x="192" y="100"/>
      <point x="185" y="100" type="curve"/>
      <point x="168" y="141" type="line"/>
      <point x="132" y="132" type="line"/>
      <point x="142" y="100" type="line"/>
      <point x="120" y="100" type="line" smooth="yes"/>
      <point x="114" y="100"/>
      <point x="111" y="102"/>
      <point x="111" y="106" type="curve" smooth="yes"/>
      <point x="121" y="639" type="line" smooth="yes"/>
      <point x="121" y="645"/>
      <point x="124" y="648"/>
      <point x="130" y="648" type="curve" smooth="yes"/>
      <point x="192" y="648" type="line" smooth="yes"/>
      <point x="198" y="648"/>
      <point x="201" y="645"/>
      <point x="201" y="639" type="curve" smooth="yes"/>
    </contour>
  </outline>
</glyph>
<glyph name="U" format="1">
  <advance width="310"/>
  <unicode hex="0055"/>
  <outline>
    <contour>
      <point x="261" y="710" type="line"/>
      <point x="176" y="710" type="line"/>
      <point x="197" y="63" type="line"/>
      <point x="110" y="69" type="line"/>
      <point x="110" y="687" type="line"/>
      <point x="50" y="687" type="line"/>
      <point x="50" y="0" type="line"/>
      <point x="217" y="0" type="line" smooth="yes"/>
      <point x="236" y="0"/>
      <point x="260" y="21"/>
      <point x="260" y="40" type="curve" smooth="yes"/>
    </contour>
    <contour>
      <point x="279" y="10" type="move" name="ogonek"/>
    </contour>
    <contour>
      <point x="155" y="710" type="move" name="top"/>
    </contour>
  </outline>
</glyph>
<glyph name="V" format="1">
  <advance width="277"/>
  <unicode hex="0056"/>
  <outline>
    <contour>
      <point x="5" y="710" type="line"/>
      <point x="121" y="-10" type="line"/>
      <point x="187" y="0" type="line"/>
      <point x="272" y="710" type="line"/>
      <point x="207" y="710" type="line"/>
      <point x="159" y="78" type="line"/>
      <point x="155" y="78" type="line"/>
      <point x="84" y="710" type="line"/>
    </contour>
  </outline>
</glyph>
<glyph name="Y" format="1">
  <advance width="235"/>
  <unicode hex="0059"/>
  <outline>
    <contour>
      <point x="91" y="-20" type="line"/>
      <point x="158" y="-20" type="line"/>
      <point x="158" y="389" type="line"/>
      <point x="211" y="451" type="line"/>
      <point x="211" y="710" type="line"/>
      <point x="155" y="710" type="line"/>
      <point x="137" y="428" type="line"/>
      <point x="101" y="431" type="line"/>
      <point x="88" y="710" type="line"/>
      <point x="24" y="710" type="line"/>
      <point x="24" y="472" type="line"/>
      <point x="91" y="353" type="line"/>
    </contour>
    <contour>
      <point x="121" y="710" type="move" name="top"/>
    </contour>
    <contour>
      <point x="119" y="0" type="move" name="bottom"/>
    </contour>
  </outline>
</glyph>
<glyph name="Z" format="1">
  <advance width="290"/>
  <unicode hex="005A"/>
  <outline>
    <contour>
      <point x="24" y="22" type="line"/>
      <point x="42" y="0" type="line"/>
      <point x="266" y="0" type="line"/>
      <point x="258" y="65" type="line"/>
      <point x="124" y="84" type="line"/>
      <point x="266" y="679" type="line"/>
      <point x="235" y="710" type="line"/>
      <point x="40" y="710" type="line"/>
      <point x="40" y="670" type="line"/>
      <point x="176" y="638" type="line"/>
      <point x="58" y="88" type="line"/>
    </contour>
    <contour>
      <point x="154" y="710" type="move" name="top"/>
    </contour>
    <contour>
      <point x="149" y="0" type="move" name="bottom"/>
    </contour>
  </outline>
</glyph>
<glyph name="bracketright" format="1">
  <advance width="246"/>
  <unicode hex="005D"/>
  <outline>
    <contour>
      <point x="148" y="-36" type="line"/>
      <point x="50" y="-40" type="line"/>
      <point x="50" y="-81" type="line"/>
      <point x="206" y="-81" type="line"/>
      <point x="206" y="756" type="line"/>
      <point x="50" y="762" type="line"/>
      <point x="50" y="712" type="line"/>
      <point x="141" y="715" type="line"/>
    </contour>
  </outline>
</glyph>
<glyph name="grave" format="1">
  <advance width="170"/>
  <unicode hex="0060"/>
  <outline>
    <contour>
      <point x="66" y="900" type="line"/>
      <point x="20" y="852" type="line"/>
      <point x="116" y="768" type="line"/>
      <point x="150" y="792" type="line"/>
    </contour>
    <contour>
      <point x="85" y="492" type="move" name="_top"/>
    </contour>
  </outline>
</glyph>
<glyph name="a" format="1">
  <advance width="274"/>
  <unicode hex="0061"/>
  <outline>
    <contour>
      <point x="47" y="532" type="line"/>
      <point x="155" y="525" type="line"/>
      <point x="167" y="519" type="line"/>
      <point x="164" y="331" type="line"/>
      <point x="80" y="337" type="line"/>
      <point x="54" y="337"/>
      <point x="35" y="320"/>
      <point x="36" y="291" type="curve"/>
      <point x="35" y="47" type="line" smooth="yes"/>
      <point x="35" y="20"/>
      <point x="64" y="0"/>
      <point x="101" y="0" type="curve" smooth="yes"/>
      <point x="246" y="0" type="line"/>
      <point x="246" y="49" type="line"/>
      <point x="228" y="59" type="line"/>
      <point x="231" y="517" type="line" smooth="yes"/>
      <point x="231" y="566"/>
      <point x="215" y="582"/>
      <point x="179" y="582" type="curve" smooth="yes"/>
      <point x="47" y="582" type="line"/>
    </contour>
    <contour>
      <point x="164" y="66" type="line"/>
      <point x="159" y="58" type="line"/>
      <point x="106" y="60" type="line"/>
      <point x="97" y="61"/>
      <point x="97" y="63"/>
      <point x="97" y="66" type="curve" smooth="yes"/>
      <point x="101" y="270" type="line"/>
      <point x="106" y="276" type="line"/>
      <point x="162" y="276" type="line"/>
    </contour>
    <contour>
      <point x="139" y="582" type="move" name="top"/>
    </contour>
    <contour>
      <point x="109" y="0" type="move" name="bottom"/>
    </contour>
  </outline>
</glyph>
<glyph name="e" format="1">
  <advance width="330"/>
  <unicode hex="0065"/>
  <outline>
    <contour>
      <point x="269" y="83" type="line"/>
      <point x="127" y="75" type="line"/>
      <point x="127" y="362" type="line"/>
      <point x="269" y="356" type="line"/>
      <point x="269" y="404" type="line"/>
      <point x="144" y="427" type="line"/>
      <point x="144" y="654" type="line"/>
      <point x="269" y="648" type="line"/>
      <point x="269" y="710" type="line"/>
      <point x="55" y="710" type="line"/>
      <point x="55" y="0" type="line"/>
      <point x="269" y="0" type="line"/>
    </contour>
    <contour>
      <point x="297" y="10" type="move" name="ogonek"/>
    </contour>
    <contour>
      <point x="165" y="0" type="move" name="bottom"/>
    </contour>
    <contour>
      <point x="165" y="492" type="move" name="top"/>
    </contour>
  </outline>
</glyph>
<glyph name="l" format="1">
  <advance width="159"/>
  <unicode hex="006C"/>
  <outline>
    <contour>
      <point x="108" y="710" type="line"/>
      <point x="108" y="710"/>
      <point x="30" y="710"/>
      <point x="30" y="710" type="curve"/>
      <point x="30" y="676" type="line"/>
      <point x="51" y="655" type="line"/>
      <point x="45" y="0" type="line"/>
      <point x="134" y="0" type="line"/>
      <point x="133" y="42" type="line"/>
      <point x="115" y="53" type="line"/>
    </contour>
    <contour>
      <point x="79" y="710" type="move" name="top"/>
    </contour>
    <contour>
      <point x="91" y="0" type="move" name="bottom"/>
    </contour>
  </outline>
</glyph>
<glyph name="m" format="1">
  <advance width="412"/>
  <unicode hex="006D"/>
  <outline>
    <contour>
      <point x="298" y="494" type="line"/>
      <point x="307" y="493"/>
      <point x="307" y="491"/>
      <point x="307" y="488" type="curve" smooth="yes"/>
      <point x="303" y="-25" type="line"/>
      <point x="387" y="-25" type="line"/>
      <point x="387" y="27" type="line"/>
      <point x="365" y="38" type="line"/>
      <point x="366" y="509" type="line" smooth="yes"/>
      <point x="366" y="536"/>
      <point x="342" y="557"/>
      <point x="305" y="557" type="curve"/>
      <point x="273" y="557"/>
      <point x="246" y="556"/>
      <point x="227" y="553" type="curve"/>
      <point x="218" y="570"/>
      <point x="201" y="582"/>
      <point x="173" y="582" type="curve" smooth="yes"/>
      <point x="101" y="582"/>
      <point x="42" y="582"/>
      <point x="42" y="582" type="curve"/>
      <point x="43" y="54" type="line"/>
      <point x="27" y="36" type="line"/>
      <point x="27" y="0" type="line"/>
      <point x="103" y="0" type="line"/>
      <point x="100" y="518" type="line" smooth="yes"/>
      <point x="100" y="523"/>
      <point x="103" y="526"/>
      <point x="108" y="526" type="curve" smooth="yes"/>
      <point x="166" y="522" type="line"/>
      <point x="175" y="521"/>
      <point x="175" y="519"/>
      <point x="175" y="516" type="curve" smooth="yes"/>
      <point x="172" y="0" type="line"/>
      <point x="239" y="0" type="line"/>
      <point x="232" y="494" type="line"/>
    </contour>
  </outline>
</glyph>
<glyph name="q" format="1">
  <advance width="307"/>
  <unicode hex="0071"/>
  <outline>
    <contour>
      <point x="50" y="0" type="line"/>
      <point x="113" y="0" type="line"/>
      <point x="192" y="-121" type="line"/>
      <point x="217" y="-134" type="line"/>
      <point x="276" y="-114" type="line"/>
      <point x="166" y="0" type="line"/>
      <point x="203" y="0" type="line" smooth="yes"/>
      <point x="243" y="0"/>
      <point x="257" y="14"/>
      <point x="257" y="37" type="curve" smooth="yes"/>
      <point x="257" y="685" type="line" smooth="yes"/>
      <point x="257" y="692"/>
      <point x="223" y="710"/>
      <point x="111" y="710" type="curve" smooth="yes"/>
      <point x="74" y="710"/>
      <point x="50" y="696"/>
      <point x="50" y="685" type="curve" smooth="yes"/>
    </contour>
    <contour>
      <point x="200" y="65" type="line"/>
      <point x="122" y="52" type="line"/>
      <point x="110" y="61" type="line"/>
      <point x="130" y="633" type="line" smooth="yes"/>
      <point x="130" y="636"/>
      <point x="133" y="638"/>
      <point x="139" y="639" type="curve"/>
      <point x="191" y="639" type="line"/>
      <point x="200" y="633" type="line"/>
    </contour>
  </outline>
</glyph>
<glyph name="s" format="1">
  <advance width="289"/>
  <unicode hex="0073"/>
  <outline>
    <contour>
      <point x="244" y="710" type="line"/>
      <point x="87" y="710" type="line"/>
      <point x="47" y="686" type="line"/>
      <point x="47" y="364" type="line"/>
      <point x="182" y="334" type="line"/>
      <point x="166" y="68" type="line"/>
      <point x="96" y="84" type="line"/>
      <point x="97" y="171" type="line"/>
      <point x="38" y="171" type="line"/>
      <point x="47" y="0" type="line"/>
      <point x="164" y="0" type="line" smooth="yes"/>
      <point x="192" y="0"/>
      <point x="238" y="32"/>
      <point x="238" y="60" type="curve"/>
      <point x="252" y="392" type="line"/>
      <point x="107" y="418" type="line"/>
      <point x="122" y="640" type="line"/>
      <point x="182" y="647" type="line"/>
      <point x="202" y="569" type="line"/>
      <point x="239" y="569" type="line"/>
    </contour>
    <contour>
      <point x="145" y="492" type="move" name="top"/>
    </contour>
    <contour>
      <point x="145" y="0" type="move" name="bottom"/>
    </contour>
  </outline>
</glyph>
<glyph name="v" format="1">
  <advance width="262"/>
  <unicode hex="0076"/>
  <outline>
    <contour>
      <point x="12" y="581" type="line"/>
      <point x="105" y="-25" type="line"/>
      <point x="159" y="-25" type="line"/>
      <point x="252" y="581" type="line"/>
      <point x="184" y="581" type="line"/>
      <point x="140" y="97" type="line"/>
      <point x="129" y="97" type="line"/>
      <point x="89" y="581" type="line"/>
    </contour>
  </outline>
</glyph>
<glyph name="bar" format="1">
  <advance width="192"/>
  <unicode hex="007C"/>
  <outline>
    <contour>
      <point x="75" y="-126" type="line"/>
      <point x="125" y="-129" type="line"/>
      <point x="125" y="762" type="line"/>
      <point x="75" y="762" type="line"/>
    </contour>
  </outline>
</glyph>
<glyph name="braceright" format="1">
  <advance width="273"/>
  <unicode hex="007D"/>
  <outline>
    <contour>
      <point x="50" y="-42" type="line"/>
      <point x="50" y="-82" type="line"/>
      <point x="196" y="-82" type="line"/>
      <point x="206" y="-73" type="line"/>
      <point x="206" y="217" type="line"/>
      <point x="246" y="302" type="line"/>
      <point x="323" y="302" type="line"/>
      <point x="321" y="355" type="line"/>
      <point x="247" y="351" type="line"/>
      <point x="207" y="468" type="line"/>
      <point x="196" y="715" type="line"/>
      <point x="158" y="755" type="line"/>
      <point x="50" y="762" type="line"/>
      <point x="50" y="713" type="line"/>
      <point x="138" y="713" type="line"/>
      <point x="138" y="434" type="line"/>
      <point x="198" y="327" type="line"/>
      <point x="142" y="222" type="line"/>
      <point x="152" y="-31" type="line"/>
    </contour>
  </outline>
</glyph>
<glyph name="cent" format="1">
  <advance width="339"/>
  <unicode hex="00A2"/>
  <outline>
    <contour>
      <point x="218" y="710" type="line"/>
      <point x="213" y="811" type="line"/>
      <point x="165" y="811" type="line"/>
      <point x="165" y="710" type="line"/>
      <point x="129" y="710" type="line"/>
      <point x="85" y="710"/>
      <point x="63" y="680"/>
      <point x="62" y="653" type="curve"/>
      <point x="42" y="62" type="line"/>
      <point x="83" y="20" type="line"/>
      <point x="154" y="20" type="line"/>
      <point x="154" y="-87" type="line"/>
      <point x="208" y="-89" type="line"/>
      <point x="203" y="20" type="line"/>
      <point x="296" y="20" type="line"/>
      <point x="296" y="187" type="line"/>
      <point x="270" y="187" type="line"/>
      <point x="244" y="167" type="line"/>
      <point x="244" y="99" type="line"/>
      <point x="244" y="95"/>
      <point x="240" y="93"/>
      <point x="232" y="93" type="curve"/>
      <point x="128" y="93" type="line"/>
      <point x="124" y="93"/>
      <point x="122" y="95"/>
      <point x="122" y="99" type="curve"/>
      <point x="122" y="567" type="line"/>
      <point x="122" y="600"/>
      <point x="122" y="630"/>
      <point x="155" y="640" type="curve"/>
      <point x="222" y="660" type="line"/>
      <point x="230" y="660"/>
      <point x="234" y="657"/>
      <point x="234" y="651" type="curve"/>
      <point x="234" y="548" type="line"/>
      <point x="280" y="548" type="line"/>
      <point x="296" y="710" type="line"/>
    </contour>
  </outline>
</glyph>
<glyph name="yen" format="1">
  <advance width="339"/>
  <unicode hex="00A5"/>
  <outline>
    <contour>
      <point x="202" y="352" type="line"/>
      <point x="262" y="451" type="line"/>
      <point x="262" y="710" type="line"/>
      <point x="206" y="710" type="line"/>
      <point x="188" y="428" type="line"/>
      <point x="152" y="431" type="line"/>
      <point x="139" y="710" type="line"/>
      <point x="75" y="710" type="line"/>
      <point x="75" y="472" type="line"/>
      <point x="142" y="353" type="line"/>
      <point x="142" y="352" type="line"/>
      <point x="20" y="352" type="line"/>
      <point x="20" y="284" type="line"/>
      <point x="142" y="288" type="line"/>
      <point x="142" y="234" type="line"/>
      <point x="23" y="231" type="line"/>
      <point x="20" y="172" type="line"/>
      <point x="142" y="172" type="line"/>
      <point x="142" y="0" type="line"/>
      <point x="209" y="0" type="line"/>
      <point x="205" y="172" type="line"/>
      <point x="314" y="172" type="line"/>
      <point x="318" y="240" type="line"/>
      <point x="204" y="236" type="line"/>
      <point x="203" y="290" type="line"/>
      <point x="315" y="294" type="line"/>
      <point x="318" y="353" type="line"/>
    </contour>
  </outline>
</glyph>
<glyph name="dieresis" format="1">
  <advance width="289"/>
  <unicode hex="00A8"/>
  <outline>
    <contour>
      <point x="118" y="878" type="line"/>
      <point x="35" y="875" type="line"/>
      <point x="35" y="795" type="line"/>
      <point x="114" y="795" type="line"/>
    </contour>
    <contour>
      <point x="254" y="878" type="line"/>
      <point x="175" y="878" type="line"/>
      <point x="178" y="795" type="line"/>
      <point x="254" y="798" type="line"/>
    </contour>
    <contour>
      <point x="146" y="900" type="move" name="top"/>
    </contour>
    <contour>
      <point x="145" y="710" type="move" name="_top"/>
    </contour>
  </outline>
</glyph>
<glyph name="degree" format="1">
  <advance width="237"/>
  <unicode hex="00B0"/>
  <outline>
    <contour>
      <point x="191" y="517" type="curve"/>
      <point x="186" y="710" type="line"/>
      <point x="77" y="710" type="line" smooth="yes"/>
      <point x="57" y="710"/>
      <point x="50" y="703"/>
      <point x="50" y="691" type="curve" smooth="yes"/>
      <point x="50" y="517" type="line" smooth="yes"/>
      <point x="50" y="514"/>
      <point x="105" y="505"/>
      <point x="160" y="505" type="curve" smooth="yes"/>
      <point x="179" y="505"/>
      <point x="191" y="512"/>
    </contour>
    <contour>
      <point x="98" y="550" type="line"/>
      <point x="94" y="553" type="line"/>
      <point x="89" y="661" type="line"/>
      <point x="143" y="674" type="line"/>
      <point x="148" y="669" type="line"/>
      <point x="144" y="558" type="line"/>
      <point x="144" y="557"/>
      <point x="143" y="556"/>
      <point x="140" y="555" type="curve"/>
    </contour>
  </outline>
</glyph>
<glyph name="uni00B2" format="1">
  <advance width="248"/>
  <unicode hex="00B2"/>
  <outline>
    <contour>
      <point x="113" y="403" type="line"/>
      <point x="192" y="533" type="line"/>
      <point x="199" y="710" type="line"/>
      <point x="99" y="710" type="line"/>
      <point x="62" y="662" type="line"/>
      <point x="62" y="566" type="line"/>
      <point x="96" y="568" type="line"/>
      <point x="106" y="659" type="line"/>
      <point x="148" y="659" type="line"/>
      <point x="143" y="554" type="line"/>
      <point x="53" y="399" type="line"/>
      <point x="45" y="345" type="line"/>
      <point x="203" y="345" type="line"/>
      <point x="203" y="392" type="line"/>
    </contour>
  </outline>
</glyph>
<glyph name="cedilla" format="1">
  <advance width="291"/>
  <unicode hex="00B8"/>
  <outline>
    <contour>
      <point x="114" y="53" type="line"/>
      <point x="74" y="-89" type="line"/>
      <point x="179" y="-97" type="line"/>
      <point x="169" y="-150" type="line"/>
      <point x="40" y="-150" type="line"/>
      <point x="40" y="-208" type="line"/>
      <point x="163" y="-208" type="line" smooth="yes"/>
      <point x="192" y="-208"/>
      <point x="227" y="-176"/>
      <point x="227" y="-148" type="curve"/>
      <point x="251" y="-45" type="line"/>
      <point x="139" y="-45" type="line"/>
      <point x="179" y="32" type="line"/>
    </contour>
    <contour>
      <point x="146" y="0" type="move" name="_bottom"/>
    </contour>
  </outline>
</glyph>
<glyph name="Edieresis" format="1">
  <advance width="316"/>
  <unicode hex="00CB"/>
  <outline>
    <contour>
      <point x="269" y="121" type="line"/>
      <point x="134" y="103" type="line"/>
      <point x="134" y="358" type="line"/>
      <point x="238" y="376" type="line"/>
      <point x="238" y="426" type="line"/>
      <point x="129" y="426" type="line"/>
      <point x="129" y="632" type="line"/>
      <point x="272" y="632" type="line"/>
      <point x="272" y="710" type="line"/>
      <point x="69" y="710" type="line"/>
      <point x="46" y="20" type="line"/>
      <point x="281" y="20" type="line"/>
    </contour>
    <contour>
      <point x="43" y="817" type="line"/>
      <point x="122" y="817" type="line"/>
      <point x="126" y="900" type="line"/>
      <point x="43" y="897" type="line"/>
    </contour>
    <contour>
      <point x="196" y="817" type="line"/>
      <point x="272" y="820" type="line"/>
      <point x="272" y="900" type="line"/>
      <point x="193" y="900" type="line"/>
    </contour>
  </outline>
</glyph>
<glyph name="Ntilde" format="1">
  <advance width="344"/>
  <unicode hex="00D1"/>
  <outline>
    <contour>
      <point x="310" y="0" type="line"/>
      <point x="195" y="0" type="line"/>
      <point x="93" y="651" type="line"/>
      <point x="89" y="651" type="line"/>
      <point x="89" y="0" type="line"/>
      <point x="30" y="0" type="line"/>
      <point x="30" y="710" type="line"/>
      <point x="146" y="710" type="line"/>
      <point x="236" y="58" type="line"/>
      <point x="240" y="58" type="line"/>
      <point x="262" y="710" type="line"/>
      <point x="320" y="710" type="line"/>
    </contour>
    <contour>
      <point x="125" y="897"/>
      <point x="113" y="892"/>
      <point x="102" y="883" type="curve" smooth="yes"/>
      <point x="76" y="860" type="line"/>
      <point x="79" y="791" type="line"/>
      <point x="147" y="844" type="line"/>
      <point x="191" y="813" type="line" smooth="yes"/>
      <point x="208" y="801"/>
      <point x="221" y="794"/>
      <point x="236" y="794" type="curve" smooth="yes"/>
      <point x="248" y="794"/>
      <point x="267" y="805"/>
      <point x="280" y="817" type="curve" smooth="yes"/>
      <point x="304" y="840" type="line"/>
      <point x="304" y="900" type="line"/>
      <point x="232" y="852" type="line"/>
      <point x="194" y="877" type="line" smooth="yes"/>
      <point x="178" y="888"/>
      <point x="159" y="897"/>
      <point x="140" y="897" type="curve" smooth="yes"/>
    </contour>
  </outline>
</glyph>
<glyph name="Odieresis" format="1">
  <advance width="318"/>
  <unicode hex="00D6"/>
  <outline>
    <contour>
      <point x="50" y="678" type="line"/>
      <point x="50" y="42" type="line"/>
      <point x="109" y="0" type="line"/>
      <point x="205" y="0" type="line"/>
      <point x="268" y="36" type="line"/>
      <point x="268" y="682" type="line"/>
      <point x="228" y="710" type="line"/>
      <point x="93" y="710" type="line"/>
    </contour>
    <contour>
      <point x="191" y="76" type="line" smooth="yes"/>
      <point x="191" y="72"/>
      <point x="188" y="70"/>
      <point x="182" y="70" type="curve" smooth="yes"/>
      <point x="140" y="70" type="line" smooth="yes"/>
      <point x="134" y="70"/>
      <point x="131" y="72"/>
      <point x="131" y="76" type="curve" smooth="yes"/>
      <point x="131" y="649" type="line" smooth="yes"/>
      <point x="131" y="655"/>
      <point x="134" y="658"/>
      <point x="140" y="658" type="curve" smooth="yes"/>
      <point x="192" y="658" type="line" smooth="yes"/>
      <point x="198" y="658"/>
      <point x="201" y="655"/>
      <point x="201" y="649" type="curve" smooth="yes"/>
    </contour>
    <contour>
      <point x="44" y="817" type="line"/>
      <point x="123" y="817" type="line"/>
      <point x="127" y="900" type="line"/>
      <point x="44" y="897" type="line"/>
    </contour>
    <contour>
      <point x="197" y="817" type="line"/>
      <point x="273" y="820" type="line"/>
      <point x="273" y="900" type="line"/>
      <point x="194" y="900" type="line"/>
    </contour>
  </outline>
</glyph>
<glyph name="Oslash" format="1">
  <advance width="310"/>
  <unicode hex="00D8"/>
  <outline>
    <contour>
      <point x="180" y="710" type="curve"/>
      <point x="46" y="710" type="line"/>
      <point x="46" y="31" type="line"/>
      <point x="18" y="-71" type="line"/>
      <point x="62" y="-88" type="line"/>
      <point x="85" y="0" type="line"/>
      <point x="264" y="0" type="line"/>
      <point x="264" y="673" type="line"/>
      <point x="291" y="775" type="line"/>
      <point x="254" y="788" type="line"/>
      <point x="231" y="706" type="line"/>
      <point x="221" y="709"/>
      <point x="204" y="710"/>
    </contour>
    <contour>
      <point x="195" y="575" type="line"/>
      <point x="107" y="253" type="line"/>
      <point x="107" y="649" type="line" smooth="yes"/>
      <point x="107" y="655"/>
      <point x="110" y="658"/>
      <point x="116" y="658" type="curve" smooth="yes"/>
      <point x="188" y="658" type="line" smooth="yes"/>
      <point x="194" y="658"/>
      <point x="197" y="655"/>
      <point x="197" y="649" type="curve" smooth="yes"/>
    </contour>
    <contour>
      <point x="107" y="81" type="line"/>
      <point x="192" y="404" type="line"/>
      <point x="187" y="77" type="line" smooth="yes"/>
      <point x="187" y="73"/>
      <point x="184" y="71"/>
      <point x="178" y="71" type="curve" smooth="yes"/>
      <point x="116" y="71" type="line" smooth="yes"/>
      <point x="110" y="71"/>
      <point x="107" y="73"/>
      <point x="107" y="77" type="curve" smooth="yes"/>
    </contour>
  </outline>
</glyph>
<glyph name="Udieresis" format="1">
  <advance width="310"/>
  <unicode hex="00DC"/>
  <outline>
    <contour>
      <point x="261" y="710" type="line"/>
      <point x="176" y="710" type="line"/>
      <point x="197" y="63" type="line"/>
      <point x="110" y="69" type="line"/>
      <point x="110" y="687" type="line"/>
      <point x="50" y="687" type="line"/>
      <point x="50" y="0" type="line"/>
      <point x="217" y="0" type="line" smooth="yes"/>
      <point x="236" y="0"/>
      <point x="260" y="21"/>
      <point x="260" y="40" type="curve" smooth="yes"/>
    </contour>
    <contour>
      <point x="40" y="817" type="line"/>
      <point x="119" y="817" type="line"/>
      <point x="123" y="900" type="line"/>
      <point x="40" y="897" type="line"/>
    </contour>
    <contour>
      <point x="193" y="817" type="line"/>
      <point x="269" y="820" type="line"/>
      <point x="269" y="900" type="line"/>
      <point x="190" y="900" type="line"/>
    </contour>
  </outline>
</glyph>
<glyph name="Thorn" format="1">
  <advance width="304"/>
  <unicode hex="00DE"/>
  <outline>
    <contour>
      <point x="111" y="530" type="line"/>
      <point x="101" y="710" type="line"/>
      <point x="50" y="710" type="line"/>
      <point x="50" y="0" type="line"/>
      <point x="108" y="0" type="line"/>
      <point x="108" y="186" type="line"/>
      <point x="161" y="186" type="line" smooth="yes"/>
      <point x="254" y="186"/>
      <point x="264" y="247"/>
      <point x="264" y="259" type="curve" smooth="yes"/>
      <point x="264" y="481" type="line" smooth="yes"/>
      <point x="264" y="508"/>
      <point x="225" y="530"/>
      <point x="174" y="530" type="curve" smooth="yes"/>
    </contour>
    <contour>
      <point x="122" y="470" type="line" smooth="yes"/>
      <point x="122" y="475"/>
      <point x="126" y="477"/>
      <point x="134" y="477" type="curve" smooth="yes"/>
      <point x="151" y="477" type="line" smooth="yes"/>
      <point x="182" y="477"/>
      <point x="192" y="460"/>
      <point x="193" y="445" type="curve"/>
      <point x="183" y="253" type="line" smooth="yes"/>
      <point x="183" y="249"/>
      <point x="181" y="247"/>
      <point x="177" y="247" type="curve"/>
      <point x="134" y="237" type="line"/>
      <point x="127" y="237"/>
      <point x="122" y="242"/>
      <point x="122" y="245" type="curve" smooth="yes"/>
    </contour>
  </outline>
</glyph>
<glyph name="germandbls" format="1">
  <advance width="435"/>
  <unicode hex="00DF"/>
  <outline>
    <contour>
      <point x="239" y="379" type="line"/>
      <point x="238" y="384" type="line"/>
      <point x="341" y="601" type="line"/>
      <point x="229" y="710" type="line"/>
      <point x="156" y="710" type="line"/>
      <point x="55" y="640" type="line"/>
      <point x="55" y="-1" type="line"/>
      <point x="137" y="-1" type="line"/>
      <point x="116" y="616" type="line"/>
      <point x="212" y="640" type="line"/>
      <point x="237" y="602" type="line"/>
      <point x="171" y="389" type="line"/>
      <point x="197" y="326" type="line"/>
      <point x="306" y="296" type="line"/>
      <point x="306" y="68" type="line"/>
      <point x="244" y="84" type="line"/>
      <point x="252" y="171" type="line"/>
      <point x="185" y="171" type="line"/>
      <point x="197" y="0" type="line"/>
      <point x="300" y="0" type="line" smooth="yes"/>
      <point x="329" y="0"/>
      <point x="371" y="32"/>
      <point x="374" y="60" type="curve"/>
      <point x="374" y="365" type="line"/>
    </contour>
  </outline>
</glyph>
<glyph name="ae" format="1">
  <advance width="411"/>
  <unicode hex="00E6"/>
  <outline>
    <contour>
      <point x="36" y="291" type="line"/>
      <point x="35" y="320"/>
      <point x="54" y="337"/>
      <point x="80" y="337" type="curve"/>
      <point x="164" y="331" type="line"/>
      <point x="167" y="519" type="line"/>
      <point x="155" y="525" type="line"/>
      <point x="47" y="532" type="line"/>
      <point x="47" y="582" type="line"/>
      <point x="328" y="582" type="line" smooth="yes"/>
      <point x="354" y="582"/>
      <point x="371" y="556"/>
      <point x="371" y="531" type="curve" smooth="yes"/>
      <point x="371" y="290" type="line"/>
      <point x="330" y="258" type="line"/>
      <point x="242" y="263" type="line"/>
      <point x="241" y="65" type="line" smooth="yes"/>
      <point x="241" y="61"/>
      <point x="243" y="57"/>
      <point x="249" y="57" type="curve" smooth="yes"/>
      <point x="308" y="56" type="line"/>
      <point x="325" y="122" type="line"/>
      <point x="368" y="122" type="line"/>
      <point x="368" y="0" type="line"/>
      <point x="101" y="0" type="line" smooth="yes"/>
      <point x="64" y="0"/>
      <point x="35" y="20"/>
      <point x="35" y="47" type="curve" smooth="yes"/>
    </contour>
    <contour>
      <point x="97" y="63"/>
      <point x="97" y="61"/>
      <point x="106" y="60" type="curve"/>
      <point x="159" y="58" type="line"/>
      <point x="164" y="66" type="line"/>
      <point x="162" y="276" type="line"/>
      <point x="106" y="276" type="line"/>
      <point x="101" y="270" type="line"/>
      <point x="97" y="66" type="line" smooth="yes"/>
    </contour>
    <contour>
      <point x="239" y="318" type="line"/>
      <point x="295" y="318" type="line" smooth="yes"/>
      <point x="300" y="318"/>
      <point x="304" y="318"/>
      <point x="304" y="329" type="curve" smooth="yes"/>
      <point x="310" y="515" type="line" smooth="yes"/>
      <point x="310" y="521"/>
      <point x="306" y="524"/>
      <point x="301" y="524" type="curve" smooth="yes"/>
      <point x="243" y="524" type="line" smooth="yes"/>
      <point x="234" y="524"/>
      <point x="234" y="521"/>
      <point x="234" y="515" type="curve" smooth="yes"/>
    </contour>
    <contour>
      <point x="204" y="582" type="move" name="top"/>
    </contour>
    <contour>
      <point x="194" y="0" type="move" name="bottom"/>
    </contour>
  </outline>
</glyph>
<glyph name="ecircumflex" format="1">
  <advance width="330"/>
  <unicode hex="00EA"/>
  <outline>
    <contour>
      <point x="269" y="83" type="line"/>
      <point x="127" y="75" type="line"/>
      <point x="127" y="362" type="line"/>
      <point x="269" y="356" type="line"/>
      <point x="269" y="404" type="line"/>
      <point x="144" y="427" type="line"/>
      <point x="144" y="654" type="line"/>
      <point x="269" y="648" type="line"/>
      <point x="269" y="710" type="line"/>
      <point x="55" y="710" type="line"/>
      <point x="55" y="0" type="line"/>
      <point x="269" y="0" type="line"/>
    </contour>
    <contour>
      <point x="71" y="787" type="line"/>
      <point x="100" y="768" type="line"/>
      <point x="165" y="830" type="line"/>
      <point x="230" y="768" type="line"/>
      <point x="259" y="787" type="line"/>
      <point x="185" y="897" type="line"/>
      <point x="145" y="900" type="line"/>
    </contour>
  </outline>
</glyph>
<glyph name="igrave" format="1">
  <advance width="175"/>
  <unicode hex="00EC"/>
  <outline>
    <contour>
      <point x="113" y="710" type="line"/>
      <point x="50" y="710" type="line"/>
      <point x="50" y="0" type="line"/>
      <point x="134" y="0" type="line"/>
    </contour>
    <contour>
      <point x="68" y="900" type="line"/>
      <point x="22" y="852" type="line"/>
      <point x="118" y="768" type="line"/>
      <point x="152" y="792" type="line"/>
    </contour>
  </outline>
</glyph>
<glyph name="ntilde" format="1">
  <advance width="335"/>
  <unicode hex="00F1"/>
  <outline>
    <contour>
      <point x="275" y="-20" type="line"/>
      <point x="207" y="-20" type="line"/>
      <point x="109" y="554" type="line"/>
      <point x="105" y="554" type="line"/>
      <point x="86" y="-20" type="line"/>
      <point x="35" y="-20" type="line"/>
      <point x="67" y="710" type="line"/>
      <point x="128" y="710" type="line"/>
      <point x="229" y="131" type="line"/>
      <point x="236" y="131" type="line"/>
      <point x="236" y="710" type="line"/>
      <point x="295" y="710" type="line"/>
    </contour>
    <contour>
      <point x="125" y="897"/>
      <point x="113" y="892"/>
      <point x="102" y="883" type="curve" smooth="yes"/>
      <point x="76" y="860" type="line"/>
      <point x="79" y="791" type="line"/>
      <point x="147" y="844" type="line"/>
      <point x="191" y="813" type="line" smooth="yes"/>
      <point x="208" y="801"/>
      <point x="221" y="794"/>
      <point x="236" y="794" type="curve" smooth="yes"/>
      <point x="248" y="794"/>
      <point x="267" y="805"/>
      <point x="280" y="817" type="curve" smooth="yes"/>
      <point x="304" y="840" type="line"/>
      <point x="304" y="900" type="line"/>
      <point x="232" y="852" type="line"/>
      <point x="194" y="877" type="line" smooth="yes"/>
      <point x="178" y="888"/>
      <point x="159" y="897"/>
      <point x="140" y="897" type="curve" smooth="yes"/>
    </contour>
  </outline>
</glyph>
<glyph name="oslash" format="1">
  <advance width="312"/>
  <unicode hex="00F8"/>
  <outline>
    <contour>
      <point x="292" y="776" type="line"/>
      <point x="256" y="789" type="line"/>
      <point x="231" y="699" type="line"/>
      <point x="207" y="706"/>
      <point x="170" y="710"/>
      <point x="110" y="710" type="curve" smooth="yes"/>
      <point x="73" y="710"/>
      <point x="49" y="696"/>
      <point x="49" y="685" type="curve" smooth="yes"/>
      <point x="58" y="58" type="line"/>
      <point x="23" y="-72" type="line"/>
      <point x="66" y="-88" type="line"/>
      <point x="89" y="0" type="line"/>
      <point x="208" y="0" type="line" smooth="yes"/>
      <point x="248" y="0"/>
      <point x="262" y="14"/>
      <point x="262" y="37" type="curve" smooth="yes"/>
      <point x="262" y="661" type="line"/>
    </contour>
    <contour>
      <point x="186" y="639" type="line"/>
      <point x="195" y="633" type="line"/>
      <point x="196" y="568" type="line"/>
      <point x="116" y="272" type="line"/>
      <point x="104" y="643" type="line" smooth="yes"/>
      <point x="104" y="646"/>
      <point x="107" y="648"/>
      <point x="113" y="649" type="curve"/>
    </contour>
    <contour>
      <point x="205" y="77" type="line"/>
      <point x="132" y="52" type="line"/>
      <point x="123" y="61" type="line"/>
      <point x="121" y="122" type="line"/>
      <point x="198" y="419" type="line"/>
    </contour>
    <contour>
      <point x="156" y="492" type="move" name="top"/>
    </contour>
  </outline>
</glyph>
<glyph name="ucircumflex" format="1">
  <advance width="304"/>
  <unicode hex="00FB"/>
  <outline>
    <contour>
      <point x="58" y="700" type="line"/>
      <point x="35" y="-20" type="line"/>
      <point x="265" y="-20" type="line"/>
      <point x="265" y="683" type="line"/>
      <point x="195" y="687" type="line"/>
      <point x="195" y="68" type="line"/>
      <point x="111" y="62" type="line"/>
      <point x="132" y="700" type="line"/>
    </contour>
    <contour>
      <point x="70" y="787" type="line"/>
      <point x="99" y="768" type="line"/>
      <point x="164" y="830" type="line"/>
      <point x="229" y="768" type="line"/>
      <point x="258" y="787" type="line"/>
      <point x="184" y="897" type="line"/>
      <point x="144" y="900" type="line"/>
    </contour>
  </outline>
</glyph>
<glyph name="thorn" format="1">
  <advance width="286"/>
  <unicode hex="00FE"/>
  <outline>
    <contour>
      <point x="254" y="448"/>
      <point x="215" y="470"/>
      <point x="164" y="470" type="curve"/>
      <point x="101" y="470" type="line"/>
      <point x="91" y="710" type="line"/>
      <point x="40" y="710" type="line"/>
      <point x="40" y="-130" type="line"/>
      <point x="98" y="-130" type="line"/>
      <point x="98" y="126" type="line"/>
      <point x="151" y="126" type="line" smooth="yes"/>
      <point x="244" y="126"/>
      <point x="254" y="187"/>
      <point x="254" y="199" type="curve" smooth="yes"/>
      <point x="254" y="421" type="line" smooth="yes"/>
    </contour>
    <contour>
      <point x="117" y="177"/>
      <point x="112" y="182"/>
      <point x="112" y="185" type="curve"/>
      <point x="112" y="410" type="line" smooth="yes"/>
      <point x="112" y="415"/>
      <point x="116" y="417"/>
      <point x="124" y="417" type="curve" smooth="yes"/>
      <point x="141" y="417" type="line" smooth="yes"/>
      <point x="172" y="417"/>
      <point x="182" y="400"/>
      <point x="183" y="385" type="curve"/>
      <point x="173" y="193" type="line" smooth="yes"/>
      <point x="173" y="189"/>
      <point x="171" y="187"/>
      <point x="167" y="187" type="curve"/>
      <point x="124" y="177" type="line"/>
    </contour>
  </outline>
</glyph>
<glyph name="Amacron" format="1">
  <advance width="304"/>
  <unicode hex="0100"/>
  <outline>
    <contour>
      <point x="254" y="710" type="line"/>
      <point x="71" y="710" type="line"/>
      <point x="26" y="0" type="line"/>
      <point x="73" y="0" type="line"/>
      <point x="119" y="278" type="line"/>
      <point x="170" y="278" type="line"/>
      <point x="196" y="0" type="line"/>
      <point x="254" y="0" type="line"/>
    </contour>
    <contour>
      <point x="191" y="331" type="line" smooth="yes"/>
      <point x="191" y="327"/>
      <point x="189" y="325"/>
      <point x="185" y="325" type="curve" smooth="yes"/>
      <point x="142" y="325" type="line" smooth="yes"/>
      <point x="138" y="325"/>
      <point x="136" y="327"/>
      <point x="136" y="330" type="curve" smooth="yes"/>
      <point x="136" y="672" type="line" smooth="yes"/>
      <point x="136" y="676"/>
      <point x="138" y="678"/>
      <point x="142" y="678" type="curve" smooth="yes"/>
      <point x="185" y="678" type="line" smooth="yes"/>
      <point x="189" y="678"/>
      <point x="191" y="676"/>
      <point x="191" y="672" type="curve" smooth="yes"/>
    </contour>
    <contour>
      <point x="30" y="891" type="line"/>
      <point x="33" y="827" type="line"/>
      <point x="298" y="836" type="line"/>
      <point x="298" y="891" type="line"/>
    </contour>
  </outline>
</glyph>
<glyph name="cacute" format="1">
  <advance width="334"/>
  <unicode hex="0107"/>
  <outline>
    <contour>
      <point x="263" y="186" type="line"/>
      <point x="244" y="174" type="line"/>
      <point x="244" y="99" type="line" smooth="yes"/>
      <point x="244" y="95"/>
      <point x="240" y="93"/>
      <point x="232" y="93" type="curve" smooth="yes"/>
      <point x="133" y="93" type="line" smooth="yes"/>
      <point x="129" y="93"/>
      <point x="124" y="93"/>
      <point x="124" y="96" type="curve" smooth="yes"/>
      <point x="124" y="97"/>
      <point x="125" y="98"/>
      <point x="127" y="99" type="curve"/>
      <point x="127" y="567" type="line"/>
      <point x="125" y="568"/>
      <point x="124" y="572"/>
      <point x="124" y="580" type="curve" smooth="yes"/>
      <point x="124" y="600"/>
      <point x="132" y="630"/>
      <point x="160" y="630" type="curve" smooth="yes"/>
      <point x="222" y="630" type="line" smooth="yes"/>
      <point x="230" y="630"/>
      <point x="234" y="627"/>
      <point x="234" y="621" type="curve" smooth="yes"/>
      <point x="234" y="528" type="line"/>
      <point x="280" y="528" type="line"/>
      <point x="296" y="689" type="line"/>
      <point x="142" y="709" type="line" smooth="yes"/>
      <point x="138" y="709"/>
      <point x="133" y="710"/>
      <point x="129" y="710" type="curve" smooth="yes"/>
      <point x="85" y="710"/>
      <point x="63" y="680"/>
      <point x="62" y="653" type="curve" smooth="yes"/>
      <point x="42" y="62" type="line"/>
      <point x="83" y="20" type="line"/>
      <point x="296" y="20" type="line"/>
      <point x="296" y="187" type="line"/>
    </contour>
    <contour>
      <point x="157" y="792" type="line"/>
      <point x="191" y="768" type="line"/>
      <point x="287" y="852" type="line"/>
      <point x="241" y="900" type="line"/>
    </contour>
  </outline>
</glyph>
<glyph name="Dcaron" format="1">
  <advance width="312"/>
  <unicode hex="010E"/>
  <outline>
    <contour>
      <point x="50" y="710" type="line"/>
      <point x="50" y="0" type="line"/>
      <point x="183" y="0" type="line"/>
      <point x="244" y="57" type="line"/>
      <point x="274" y="600" type="line"/>
      <point x="274" y="664"/>
      <point x="229" y="710"/>
      <point x="165" y="710" type="curve" smooth="yes"/>
    </contour>
    <contour>
      <point x="177" y="84" type="line" smooth="yes"/>
      <point x="177" y="79"/>
      <point x="174" y="75"/>
      <point x="168" y="71" type="curve"/>
      <point x="131" y="66" type="line"/>
      <point x="122" y="72" type="line"/>
      <point x="122" y="638" type="line" smooth="yes"/>
      <point x="122" y="641"/>
      <point x="128" y="644"/>
      <point x="131" y="644" type="curve" smooth="yes"/>
      <point x="176" y="644" type="line" smooth="yes"/>
      <point x="184" y="644"/>
      <point x="188" y="642"/>
      <point x="188" y="638" type="curve" smooth="yes"/>
    </contour>
    <contour>
      <point x="252" y="881" type="line"/>
      <point x="223" y="900" type="line"/>
      <point x="158" y="838" type="line"/>
      <point x="93" y="900" type="line"/>
      <point x="64" y="881" type="line"/>
      <point x="138" y="771" type="line"/>
      <point x="178" y="768" type="line"/>
    </contour>
  </outline>
</glyph>
<glyph name="Dcroat" format="1">
  <advance width="295"/>
  <unicode hex="0110"/>
  <outline>
    <contour>
      <point x="157" y="338" type="line"/>
      <point x="157" y="387" type="line"/>
      <point x="-5" y="396" type="line"/>
      <point x="-2" y="338" type="line"/>
    </contour>
    <component base="D"/>
  </outline>
</glyph>
<glyph name="dcroat" format="1">
  <advance width="333"/>
  <unicode hex="0111"/>
  <outline>
    <contour>
      <point x="41" y="710" type="line"/>
      <point x="51" y="393" type="line"/>
      <point x="8" y="396" type="line"/>
      <point x="11" y="338" type="line"/>
      <point x="53" y="338" type="line"/>
      <point x="62" y="84" type="line"/>
      <point x="56" y="56" type="line"/>
      <point x="56" y="0" type="line"/>
      <point x="224" y="0" type="line" smooth="yes"/>
      <point x="233" y="0"/>
      <point x="283" y="4"/>
      <point x="283" y="56" type="curve" smooth="yes"/>
      <point x="283" y="678" type="line"/>
      <point x="206" y="710" type="line"/>
    </contour>
    <contour>
      <point x="136" y="69" type="line" smooth="yes"/>
      <point x="130" y="69"/>
      <point x="127" y="72"/>
      <point x="127" y="78" type="curve" smooth="yes"/>
      <point x="127" y="338" type="line"/>
      <point x="176" y="338" type="line"/>
      <point x="176" y="387" type="line"/>
      <point x="127" y="389" type="line"/>
      <point x="127" y="638" type="line" smooth="yes"/>
      <point x="127" y="644"/>
      <point x="130" y="647"/>
      <point x="136" y="647" type="curve" smooth="yes"/>
      <point x="212" y="647" type="line" smooth="yes"/>
      <point x="219" y="647"/>
      <point x="221" y="646"/>
      <point x="221" y="638" type="curve" smooth="yes"/>
      <point x="201" y="131" type="line"/>
      <point x="198" y="76"/>
      <point x="185" y="69"/>
      <point x="168" y="69" type="curve" smooth="yes"/>
    </contour>
  </outline>
</glyph>
<glyph name="Emacron" format="1">
  <advance width="316"/>
  <unicode hex="0112"/>
  <outline>
    <contour>
      <point x="269" y="121" type="line"/>
      <point x="134" y="103" type="line"/>
      <point x="134" y="358" type="line"/>
      <point x="238" y="376" type="line"/>
      <point x="238" y="426" type="line"/>
      <point x="129" y="426" type="line"/>
      <point x="129" y="632" type="line"/>
      <point x="272" y="632" type="line"/>
      <point x="272" y="710" type="line"/>
      <point x="69" y="710" type="line"/>
      <point x="46" y="20" type="line"/>
      <point x="281" y="20" type="line"/>
    </contour>
    <contour>
      <point x="38" y="891" type="line"/>
      <point x="41" y="827" type="line"/>
      <point x="306" y="836" type="line"/>
      <point x="306" y="891" type="line"/>
    </contour>
  </outline>
</glyph>
<glyph name="Ebreve" format="1">
  <advance width="316"/>
  <unicode hex="0114"/>
  <outline>
    <contour>
      <point x="269" y="121" type="line"/>
      <point x="134" y="103" type="line"/>
      <point x="134" y="358" type="line"/>
      <point x="238" y="376" type="line"/>
      <point x="238" y="426" type="line"/>
      <point x="129" y="426" type="line"/>
      <point x="129" y="632" type="line"/>
      <point x="272" y="632" type="line"/>
      <point x="272" y="710" type="line"/>
      <point x="69" y="710" type="line"/>
      <point x="46" y="20" type="line"/>
      <point x="281" y="20" type="line"/>
    </contour>
    <contour>
      <point x="72" y="894" type="line"/>
      <point x="76" y="813" type="line"/>
      <point x="121" y="785" type="line"/>
      <point x="246" y="785" type="line"/>
      <point x="285" y="824" type="line"/>
      <point x="285" y="900" type="line"/>
      <point x="239" y="896" type="line"/>
      <point x="242" y="830" type="line"/>
      <point x="132" y="835" type="line"/>
      <point x="120" y="846" type="line"/>
      <point x="125" y="894" type="line"/>
    </contour>
  </outline>
</glyph>
<glyph name="edotaccent" format="1">
  <advance width="330"/>
  <unicode hex="0117"/>
  <outline>
    <contour>
      <point x="269" y="83" type="line"/>
      <point x="127" y="75" type="line"/>
      <point x="127" y="362" type="line"/>
      <point x="269" y="356" type="line"/>
      <point x="269" y="404" type="line"/>
      <point x="144" y="427" type="line"/>
      <point x="144" y="654" type="line"/>
      <point x="269" y="648" type="line"/>
      <point x="269" y="710" type="line"/>
      <point x="55" y="710" type="line"/>
      <point x="55" y="0" type="line"/>
      <point x="269" y="0" type="line"/>
    </contour>
    <contour>
      <point x="130" y="802" type="line"/>
      <point x="219" y="805" type="line"/>
      <point x="219" y="900" type="line"/>
      <point x="126" y="900" type="line"/>
    </contour>
  </outline>
</glyph>
<glyph name="Eogonek" format="1">
  <advance width="316"/>
  <unicode hex="0118"/>
  <outline>
    <contour>
      <point x="269" y="121" type="line"/>
      <point x="134" y="103" type="line"/>
      <point x="134" y="358" type="line"/>
      <point x="238" y="376" type="line"/>
      <point x="238" y="426" type="line"/>
      <point x="129" y="426" type="line"/>
      <point x="129" y="632" type="line"/>
      <point x="272" y="632" type="line"/>
      <point x="272" y="710" type="line"/>
      <point x="69" y="710" type="line"/>
      <point x="46" y="20" type="line"/>
      <point x="123" y="20" type="line"/>
      <point x="65" y="-95" type="line"/>
      <point x="153" y="-209" type="line"/>
      <point x="266" y="-146" type="line"/>
      <point x="250" y="-100" type="line"/>
      <point x="161" y="-145" type="line"/>
      <point x="127" y="-83" type="line"/>
      <point x="153" y="0" type="line"/>
      <point x="153" y="20" type="line"/>
      <point x="281" y="20" type="line"/>
    </contour>
  </outline>
</glyph>
<glyph name="ecaron" format="1">
  <advance width="330"/>
  <unicode hex="011B"/>
  <outline>
    <contour>
      <point x="269" y="83" type="line"/>
      <point x="127" y="75" type="line"/>
      <point x="127" y="362" type="line"/>
      <point x="269" y="356" type="line"/>
      <point x="269" y="404" type="line"/>
      <point x="144" y="427" type="line"/>
      <point x="144" y="654" type="line"/>
      <point x="269" y="648" type="line"/>
      <point x="269" y="710" type="line"/>
      <point x="55" y="710" type="line"/>
      <point x="55" y="0" type="line"/>
      <point x="269" y="0" type="line"/>
    </contour>
    <contour>
      <point x="267" y="881" type="line"/>
      <point x="238" y="900" type="line"/>
      <point x="173" y="838" type="line"/>
      <point x="108" y="900" type="line"/>
      <point x="79" y="881" type="line"/>
      <point x="153" y="771" type="line"/>
      <point x="193" y="768" type="line"/>
    </contour>
  </outline>
</glyph>
<glyph name="hcircumflex" format="1">
  <advance width="333"/>
  <unicode hex="0125"/>
  <outline>
    <contour>
      <point x="239" y="0" type="line"/>
      <point x="283" y="0" type="line"/>
      <point x="283" y="710" type="line"/>
      <point x="210" y="710" type="line"/>
      <point x="210" y="400" type="line"/>
      <point x="111" y="395" type="line"/>
      <point x="122" y="710" type="line"/>
      <point x="50" y="710" type="line"/>
      <point x="50" y="0" type="line"/>
      <point x="124" y="0" type="line"/>
      <point x="124" y="327" type="line"/>
      <point x="210" y="310" type="line"/>
    </contour>
    <contour>
      <point x="75" y="787" type="line"/>
      <point x="104" y="768" type="line"/>
      <point x="169" y="830" type="line"/>
      <point x="234" y="768" type="line"/>
      <point x="263" y="787" type="line"/>
      <point x="189" y="897" type="line"/>
      <point x="149" y="900" type="line"/>
    </contour>
  </outline>
</glyph>
<glyph name="hbar" format="1">
  <advance width="333"/>
  <unicode hex="0127"/>
  <outline>
    <contour>
      <point x="239" y="0" type="line"/>
      <point x="283" y="0" type="line"/>
      <point x="283" y="710" type="line"/>
      <point x="210" y="710" type="line"/>
      <point x="210" y="400" type="line"/>
      <point x="111" y="395" type="line"/>
      <point x="116" y="540" type="line"/>
      <point x="319" y="543" type="line"/>
      <point x="319" y="592" type="line"/>
      <point x="118" y="592" type="line"/>
      <point x="122" y="710" type="line"/>
      <point x="50" y="710" type="line"/>
      <point x="50" y="592" type="line"/>
      <point x="2" y="592" type="line"/>
      <point x="5" y="534" type="line"/>
      <point x="50" y="536" type="line"/>
      <point x="50" y="0" type="line"/>
      <point x="124" y="0" type="line"/>
      <point x="124" y="327" type="line"/>
      <point x="210" y="310" type="line"/>
    </contour>
  </outline>
</glyph>
<glyph name="Imacron" format="1">
  <advance width="178"/>
  <unicode hex="012A"/>
  <outline>
    <contour>
      <point x="133" y="710" type="line"/>
      <point x="32" y="710" type="line"/>
      <point x="32" y="664" type="line"/>
      <point x="50" y="616" type="line"/>
      <point x="50" y="0" type="line"/>
      <point x="124" y="0" type="line"/>
    </contour>
    <contour>
      <point x="-49" y="891" type="line"/>
      <point x="-46" y="827" type="line"/>
      <point x="219" y="836" type="line"/>
      <point x="219" y="891" type="line"/>
    </contour>
  </outline>
</glyph>
<glyph name="dotlessi" format="1">
  <advance width="163"/>
  <unicode hex="0131"/>
  <outline>
    <contour>
      <point x="50" y="-24" type="line"/>
      <point x="125" y="-24" type="line"/>
      <point x="126" y="21" type="line"/>
      <point x="112" y="51" type="line"/>
      <point x="120" y="582" type="line"/>
      <point x="46" y="582" type="line"/>
    </contour>
    <contour>
      <point x="83" y="582" type="move" name="top"/>
    </contour>
    <contour>
      <point x="83" y="0" type="move" name="bottom"/>
    </contour>
  </outline>
</glyph>
<glyph name="kgreenlandic" format="1">
  <advance width="290"/>
  <unicode hex="0138"/>
  <outline>
    <contour>
      <point x="195" y="0" type="line"/>
      <point x="254" y="0" type="line"/>
      <point x="272" y="49" type="line"/>
      <point x="195" y="281" type="line"/>
      <point x="233" y="306" type="line"/>
      <point x="254" y="560" type="line"/>
      <point x="168" y="537" type="line"/>
      <point x="179" y="337" type="line"/>
      <point x="108" y="277" type="line"/>
      <point x="108" y="560" type="line"/>
      <point x="66" y="560" type="line"/>
      <point x="30" y="538" type="line"/>
      <point x="53" y="0" type="line"/>
      <point x="120" y="0" type="line"/>
      <point x="120" y="226" type="line"/>
      <point x="142" y="243" type="line"/>
    </contour>
  </outline>
</glyph>
<glyph name="Lacute" format="1">
  <advance width="264"/>
  <unicode hex="0139"/>
  <outline>
    <contour>
      <point x="239" y="0" type="line"/>
      <point x="50" y="0" type="line"/>
      <point x="50" y="710" type="line"/>
      <point x="147" y="710" type="line"/>
      <point x="126" y="82" type="line"/>
      <point x="239" y="64" type="line"/>
    </contour>
    <contour>
      <point x="65" y="792" type="line"/>
      <point x="99" y="768" type="line"/>
      <point x="195" y="852" type="line"/>
      <point x="149" y="900" type="line"/>
    </contour>
  </outline>
</glyph>
<glyph name="lcommaaccent" format="1">
  <advance width="287"/>
  <unicode hex="013C"/>
  <outline>
    <contour>
      <point x="252" y="69" type="line"/>
      <point x="139" y="82" type="line"/>
      <point x="124" y="105" type="line"/>
      <point x="124" y="710" type="line"/>
      <point x="50" y="710" type="line"/>
      <point x="50" y="0" type="line"/>
      <point x="252" y="0" type="line"/>
    </contour>
    <contour>
      <point x="103" y="-160" type="line"/>
      <point x="145" y="-160" type="line"/>
      <point x="99" y="-234" type="line"/>
      <point x="154" y="-250" type="line"/>
      <point x="187" y="-160" type="line"/>
      <point x="184" y="-78" type="line"/>
      <point x="103" y="-78" type="line"/>
    </contour>
  </outline>
</glyph>
<glyph name="Lcaron" format="1">
  <advance width="264"/>
  <unicode hex="013D"/>
  <outline>
    <contour>
      <point x="273" y="759" type="line"/>
      <point x="187" y="755" type="line"/>
      <point x="219" y="663" type="line"/>
      <point x="168" y="588" type="line"/>
      <point x="211" y="573" type="line"/>
      <point x="279" y="663" type="line"/>
    </contour>
    <component base="L"/>
  </outline>
</glyph>
<glyph name="ldot" format="1">
  <advance width="340"/>
  <unicode hex="0140"/>
  <outline>
    <contour>
      <point x="252" y="69" type="line"/>
      <point x="139" y="82" type="line"/>
      <point x="124" y="105" type="line"/>
      <point x="124" y="710" type="line"/>
      <point x="50" y="710" type="line"/>
      <point x="50" y="0" type="line"/>
      <point x="252" y="0" type="line"/>
    </contour>
    <contour>
      <point x="204" y="321" type="line"/>
      <point x="296" y="321" type="line"/>
      <point x="300" y="417" type="line"/>
      <point x="204" y="413" type="line"/>
    </contour>
  </outline>
</glyph>
<glyph name="Lslash" format="1">
  <advance width="264"/>
  <unicode hex="0141"/>
  <outline>
    <contour>
      <point x="50" y="0" type="line"/>
      <point x="239" y="0" type="line"/>
      <point x="239" y="64" type="line"/>
      <point x="126" y="82" type="line"/>
      <point x="135" y="353" type="line"/>
      <point x="243" y="418" type="line"/>
      <point x="218" y="464" type="line"/>
      <point x="137" y="418" type="line"/>
      <point x="147" y="710" type="line"/>
      <point x="50" y="710" type="line"/>
      <point x="50" y="369" type="line"/>
      <point x="-23" y="328" type="line"/>
      <point x="3" y="274" type="line"/>
      <point x="50" y="302" type="line"/>
    </contour>
  </outline>
</glyph>
<glyph name="lslash" format="1">
  <advance width="287"/>
  <unicode hex="0142"/>
  <outline>
    <contour>
      <point x="252" y="69" type="line"/>
      <point x="139" y="82" type="line"/>
      <point x="124" y="105" type="line"/>
      <point x="124" y="368" type="line"/>
      <point x="218" y="425" type="line"/>
      <point x="193" y="471" type="line"/>
      <point x="124" y="432" type="line"/>
      <point x="124" y="710" type="line"/>
      <point x="50" y="710" type="line"/>
      <point x="50" y="390" type="line"/>
      <point x="-33" y="344" type="line"/>
      <point x="-7" y="290" type="line"/>
      <point x="50" y="324" type="line"/>
      <point x="50" y="0" type="line"/>
      <point x="252" y="0" type="line"/>
    </contour>
  </outline>
</glyph>
<glyph name="Nacute" format="1">
  <advance width="344"/>
  <unicode hex="0143"/>
  <outline>
    <contour>
      <point x="310" y="0" type="line"/>
      <point x="195" y="0" type="line"/>
      <point x="93" y="651" type="line"/>
      <point x="89" y="651" type="line"/>
      <point x="89" y="0" type="line"/>
      <point x="30" y="0" type="line"/>
      <point x="30" y="710" type="line"/>
      <point x="146" y="710" type="line"/>
      <point x="236" y="58" type="line"/>
      <point x="240" y="58" type="line"/>
      <point x="262" y="710" type="line"/>
      <point x="320" y="710" type="line"/>
    </contour>
    <contour>
      <point x="128" y="792" type="line"/>
      <point x="162" y="768" type="line"/>
      <point x="258" y="852" type="line"/>
      <point x="212" y="900" type="line"/>
    </contour>
  </outline>
</glyph>
<glyph name="ncommaaccent" format="1">
  <advance width="335"/>
  <unicode hex="0146"/>
  <outline>
    <contour>
      <point x="295" y="710" type="line"/>
      <point x="236" y="710" type="line"/>
      <point x="236" y="131" type="line"/>
      <point x="229" y="131" type="line"/>
      <point x="128" y="710" type="line"/>
      <point x="67" y="710" type="line"/>
      <point x="35" y="-20" type="line"/>
      <point x="86" y="-20" type="line"/>
      <point x="105" y="554" type="line"/>
      <point x="109" y="554" type="line"/>
      <point x="207" y="-20" type="line"/>
      <point x="275" y="-20" type="line"/>
    </contour>
    <contour>
      <point x="127" y="-160" type="line"/>
      <point x="169" y="-160" type="line"/>
      <point x="123" y="-234" type="line"/>
      <point x="178" y="-250" type="line"/>
      <point x="211" y="-160" type="line"/>
      <point x="208" y="-78" type="line"/>
      <point x="127" y="-78" type="line"/>
    </contour>
  </outline>
</glyph>
<glyph name="Ncaron" format="1">
  <advance width="344"/>
  <unicode hex="0147"/>
  <outline>
    <contour>
      <point x="320" y="710" type="line"/>
      <point x="262" y="710" type="line"/>
      <point x="240" y="58" type="line"/>
      <point x="236" y="58" type="line"/>
      <point x="146" y="710" type="line"/>
      <point x="30" y="710" type="line"/>
      <point x="30" y="0" type="line"/>
      <point x="89" y="0" type="line"/>
      <point x="89" y="651" type="line"/>
      <point x="93" y="651" type="line"/>
      <point x="195" y="0" type="line"/>
      <point x="310" y="0" type="line"/>
    </contour>
    <contour>
      <point x="278" y="881" type="line"/>
      <point x="249" y="900" type="line"/>
      <point x="184" y="838" type="line"/>
      <point x="119" y="900" type="line"/>
      <point x="90" y="881" type="line"/>
      <point x="164" y="771" type="line"/>
      <point x="204" y="768" type="line"/>
    </contour>
  </outline>
</glyph>
<glyph name="napostrophe" format="1">
  <advance width="444"/>
  <unicode hex="0149"/>
  <outline>
    <contour>
      <point x="405" y="710" type="line"/>
      <point x="346" y="710" type="line"/>
      <point x="346" y="131" type="line"/>
      <point x="339" y="131" type="line"/>
      <point x="238" y="710" type="line"/>
      <point x="177" y="710" type="line"/>
      <point x="145" y="-20" type="line"/>
      <point x="196" y="-20" type="line"/>
      <point x="215" y="554" type="line"/>
      <point x="219" y="554" type="line"/>
      <point x="317" y="-20" type="line"/>
      <point x="385" y="-20" type="line"/>
    </contour>
    <contour>
      <point x="39" y="628" type="line"/>
      <point x="81" y="628" type="line"/>
      <point x="35" y="554" type="line"/>
      <point x="90" y="538" type="line"/>
      <point x="123" y="628" type="line"/>
      <point x="120" y="710" type="line"/>
      <point x="39" y="710" type="line"/>
    </contour>
  </outline>
</glyph>
<glyph name="eng" format="1">
  <advance width="335"/>
  <unicode hex="014B"/>
  <outline>
    <contour>
      <point x="294" y="720" type="line"/>
      <point x="257" y="720" type="line"/>
      <point x="214" y="706" type="line"/>
      <point x="226" y="338" type="line"/>
      <point x="220" y="338" type="line"/>
      <point x="128" y="710" type="line"/>
      <point x="67" y="710" type="line"/>
      <point x="35" y="20" type="line"/>
      <point x="86" y="20" type="line"/>
      <point x="105" y="554" type="line"/>
      <point x="109" y="554" type="line"/>
      <point x="233" y="136" type="line"/>
      <point x="236" y="39" type="line"/>
      <point x="191" y="44" type="line"/>
      <point x="186" y="102" type="line"/>
      <point x="137" y="102" type="line"/>
      <point x="145" y="8" type="line" smooth="yes"/>
      <point x="146" y="-11"/>
      <point x="169" y="-30"/>
      <point x="188" y="-30" type="curve" smooth="yes"/>
      <point x="294" y="-30" type="line"/>
    </contour>
  </outline>
</glyph>
<glyph name="oe" format="1">
  <advance width="459"/>
  <unicode hex="0153"/>
  <outline>
    <contour>
      <point x="419" y="83" type="line"/>
      <point x="277" y="75" type="line"/>
      <point x="277" y="362" type="line"/>
      <point x="419" y="356" type="line"/>
      <point x="419" y="404" type="line"/>
      <point x="294" y="427" type="line"/>
      <point x="294" y="654" type="line"/>
      <point x="419" y="648" type="line"/>
      <point x="419" y="710" type="line"/>
      <point x="235" y="703" type="line"/>
      <point x="225" y="707"/>
      <point x="214" y="710"/>
      <point x="201" y="710" type="curve" smooth="yes"/>
      <point x="120" y="710"/>
      <point x="78" y="702"/>
      <point x="49" y="686" type="curve"/>
      <point x="49" y="56" type="line" smooth="yes"/>
      <point x="49" y="17"/>
      <point x="66" y="0"/>
      <point x="122" y="0" type="curve" smooth="yes"/>
      <point x="419" y="0" type="line"/>
    </contour>
    <contour>
      <point x="119" y="640" type="line"/>
      <point x="128" y="646" type="line"/>
      <point x="190" y="643" type="line"/>
      <point x="196" y="642"/>
      <point x="199" y="640"/>
      <point x="199" y="637" type="curve" smooth="yes"/>
      <point x="193" y="66" type="line"/>
      <point x="184" y="57" type="line"/>
      <point x="113" y="63" type="line"/>
    </contour>
    <contour>
      <point x="230" y="492" type="move" name="top"/>
    </contour>
  </outline>
</glyph>
<glyph name="Rcommaaccent" format="1">
  <advance width="319"/>
  <unicode hex="0156"/>
  <outline>
    <contour>
      <point x="137" y="311" type="line"/>
      <point x="192" y="193" type="line"/>
      <point x="208" y="-3" type="line"/>
      <point x="281" y="0" type="line"/>
      <point x="260" y="206" type="line"/>
      <point x="201" y="316" type="line"/>
      <point x="257" y="332"/>
      <point x="264" y="374"/>
      <point x="264" y="384" type="curve" smooth="yes"/>
      <point x="274" y="661" type="line"/>
      <point x="273" y="688"/>
      <point x="235" y="710"/>
      <point x="184" y="710" type="curve" smooth="yes"/>
      <point x="28" y="710" type="line"/>
      <point x="28" y="681" type="line"/>
      <point x="50" y="669" type="line"/>
      <point x="50" y="0" type="line"/>
      <point x="108" y="0" type="line"/>
      <point x="108" y="311" type="line"/>
    </contour>
    <contour>
      <point x="122" y="655" type="line" smooth="yes"/>
      <point x="122" y="660"/>
      <point x="126" y="664"/>
      <point x="134" y="667" type="curve"/>
      <point x="195" y="667"/>
      <point x="199" y="648"/>
      <point x="199" y="634" type="curve" smooth="yes"/>
      <point x="193" y="381" type="line" smooth="yes"/>
      <point x="193" y="377"/>
      <point x="191" y="375"/>
      <point x="187" y="375" type="curve" smooth="yes"/>
      <point x="134" y="375" type="line" smooth="yes"/>
      <point x="127" y="375"/>
      <point x="122" y="380"/>
      <point x="122" y="383" type="curve" smooth="yes"/>
    </contour>
    <contour>
      <point x="109" y="-160" type="line"/>
      <point x="151" y="-160" type="line"/>
      <point x="105" y="-234" type="line"/>
      <point x="160" y="-250" type="line"/>
      <point x="193" y="-160" type="line"/>
      <point x="190" y="-78" type="line"/>
      <point x="109" y="-78" type="line"/>
    </contour>
  </outline>
</glyph>
<glyph name="rcommaaccent" format="1">
  <advance width="319"/>
  <unicode hex="0157"/>
  <outline>
    <contour>
      <point x="50" y="0" type="line"/>
      <point x="96" y="0" type="line"/>
      <point x="117" y="306" type="line"/>
      <point x="168" y="311" type="line"/>
      <point x="219" y="0" type="line"/>
      <point x="278" y="0" type="line"/>
      <point x="297" y="22" type="line"/>
      <point x="217" y="320" type="line"/>
      <point x="262" y="379" type="line"/>
      <point x="252" y="667" type="line" smooth="yes"/>
      <point x="251" y="692"/>
      <point x="236" y="710"/>
      <point x="215" y="710" type="curve" smooth="yes"/>
      <point x="172" y="710" type="line" smooth="yes"/>
      <point x="132" y="710"/>
      <point x="50" y="707"/>
      <point x="50" y="699" type="curve" smooth="yes"/>
    </contour>
    <contour>
      <point x="110" y="648" type="line"/>
      <point x="179" y="655" type="line"/>
      <point x="194" y="640" type="line"/>
      <point x="194" y="391" type="line" smooth="yes"/>
      <point x="194" y="387"/>
      <point x="192" y="385"/>
      <point x="188" y="385" type="curve" smooth="yes"/>
      <point x="113" y="381" type="line"/>
    </contour>
    <contour>
      <point x="119" y="-160" type="line"/>
      <point x="161" y="-160" type="line"/>
      <point x="115" y="-234" type="line"/>
      <point x="170" y="-250" type="line"/>
      <point x="203" y="-160" type="line"/>
      <point x="200" y="-78" type="line"/>
      <point x="119" y="-78" type="line"/>
    </contour>
  </outline>
</glyph>
<glyph name="uni0162" format="1">
  <advance width="275"/>
  <unicode hex="0162"/>
  <outline>
    <contour>
      <point x="250" y="710" type="line"/>
      <point x="35" y="710" type="line"/>
      <point x="25" y="672" type="line"/>
      <point x="94" y="660" type="line"/>
      <point x="94" y="21" type="line"/>
      <point x="63" y="-89" type="line"/>
      <point x="168" y="-97" type="line"/>
      <point x="158" y="-150" type="line"/>
      <point x="29" y="-150" type="line"/>
      <point x="29" y="-208" type="line"/>
      <point x="152" y="-208" type="line" smooth="yes"/>
      <point x="181" y="-208"/>
      <point x="216" y="-176"/>
      <point x="216" y="-148" type="curve"/>
      <point x="240" y="-45" type="line"/>
      <point x="128" y="-45" type="line"/>
      <point x="162" y="20" type="line"/>
      <point x="178" y="20" type="line"/>
      <point x="178" y="653" type="line"/>
      <point x="250" y="653" type="line"/>
    </contour>
  </outline>
</glyph>
<glyph name="uni0163" format="1">
  <advance width="275"/>
  <unicode hex="0163"/>
  <outline>
    <contour>
      <point x="38" y="710" type="line"/>
      <point x="25" y="639" type="line"/>
      <point x="97" y="615" type="line"/>
      <point x="77" y="0" type="line"/>
      <point x="52" y="-89" type="line"/>
      <point x="157" y="-97" type="line"/>
      <point x="147" y="-150" type="line"/>
      <point x="18" y="-150" type="line"/>
      <point x="18" y="-208" type="line"/>
      <point x="141" y="-208" type="line" smooth="yes"/>
      <point x="170" y="-208"/>
      <point x="205" y="-176"/>
      <point x="205" y="-148" type="curve"/>
      <point x="229" y="-45" type="line"/>
      <point x="117" y="-45" type="line"/>
      <point x="140" y="0" type="line"/>
      <point x="162" y="0" type="line"/>
      <point x="162" y="633" type="line"/>
      <point x="250" y="633" type="line"/>
      <point x="245" y="696" type="line"/>
    </contour>
  </outline>
</glyph>
<glyph name="tcaron" format="1">
  <advance width="275"/>
  <unicode hex="0165"/>
  <outline>
    <contour>
      <point x="38" y="710" type="line"/>
      <point x="25" y="639" type="line"/>
      <point x="97" y="615" type="line"/>
      <point x="77" y="0" type="line"/>
      <point x="162" y="0" type="line"/>
      <point x="162" y="633" type="line"/>
      <point x="250" y="633" type="line"/>
      <point x="245" y="696" type="line"/>
    </contour>
    <contour>
      <point x="233" y="881" type="line"/>
      <point x="204" y="900" type="line"/>
      <point x="139" y="838" type="line"/>
      <point x="74" y="900" type="line"/>
      <point x="45" y="881" type="line"/>
      <point x="119" y="771" type="line"/>
      <point x="159" y="768" type="line"/>
    </contour>
  </outline>
</glyph>
<glyph name="Utilde" format="1">
  <advance width="310"/>
  <unicode hex="0168"/>
  <outline>
    <contour>
      <point x="261" y="710" type="line"/>
      <point x="176" y="710" type="line"/>
      <point x="197" y="63" type="line"/>
      <point x="110" y="69" type="line"/>
      <point x="110" y="687" type="line"/>
      <point x="50" y="687" type="line"/>
      <point x="50" y="0" type="line"/>
      <point x="217" y="0" type="line" smooth="yes"/>
      <point x="236" y="0"/>
      <point x="260" y="21"/>
      <point x="260" y="40" type="curve" smooth="yes"/>
    </contour>
    <contour>
      <point x="89" y="897"/>
      <point x="77" y="892"/>
      <point x="66" y="883" type="curve" smooth="yes"/>
      <point x="40" y="860" type="line"/>
      <point x="43" y="791" type="line"/>
      <point x="111" y="844" type="line"/>
      <point x="155" y="813" type="line" smooth="yes"/>
      <point x="172" y="801"/>
      <point x="185" y="794"/>
      <point x="200" y="794" type="curve" smooth="yes"/>
      <point x="212" y="794"/>
      <point x="231" y="805"/>
      <point x="244" y="817" type="curve" smooth="yes"/>
      <point x="268" y="840" type="line"/>
      <point x="268" y="900" type="line"/>
      <point x="196" y="852" type="line"/>
      <point x="158" y="877" type="line" smooth="yes"/>
      <point x="142" y="888"/>
      <point x="123" y="897"/>
      <point x="104" y="897" type="curve" smooth="yes"/>
    </contour>
  </outline>
</glyph>
<glyph name="Umacron" format="1">
  <advance width="310"/>
  <unicode hex="016A"/>
  <outline>
    <contour>
      <point x="261" y="710" type="line"/>
      <point x="176" y="710" type="line"/>
      <point x="197" y="63" type="line"/>
      <point x="110" y="69" type="line"/>
      <point x="110" y="687" type="line"/>
      <point x="50" y="687" type="line"/>
      <point x="50" y="0" type="line"/>
      <point x="217" y="0" type="line" smooth="yes"/>
      <point x="236" y="0"/>
      <point x="260" y="21"/>
      <point x="260" y="40" type="curve" smooth="yes"/>
    </contour>
    <contour>
      <point x="25" y="891" type="line"/>
      <point x="28" y="827" type="line"/>
      <point x="293" y="836" type="line"/>
      <point x="293" y="891" type="line"/>
    </contour>
  </outline>
</glyph>
<glyph name="Uring" format="1">
  <advance width="310"/>
  <unicode hex="016E"/>
  <outline>
    <contour>
      <point x="261" y="710" type="line"/>
      <point x="176" y="710" type="line"/>
      <point x="197" y="63" type="line"/>
      <point x="110" y="69" type="line"/>
      <point x="110" y="687" type="line"/>
      <point x="50" y="687" type="line"/>
      <point x="50" y="0" type="line"/>
      <point x="217" y="0" type="line" smooth="yes"/>
      <point x="236" y="0"/>
      <point x="260" y="21"/>
      <point x="260" y="40" type="curve" smooth="yes"/>
    </contour>
    <contour>
      <point x="88" y="900" type="line"/>
      <point x="88" y="765" type="line"/>
      <point x="202" y="765" type="line"/>
      <point x="227" y="791" type="line"/>
      <point x="227" y="900" type="line"/>
    </contour>
    <contour>
      <point x="137" y="800" type="line" smooth="yes"/>
      <point x="133" y="800"/>
      <point x="131" y="801"/>
      <point x="131" y="804" type="curve" smooth="yes"/>
      <point x="131" y="870" type="line" smooth="yes"/>
      <point x="131" y="872"/>
      <point x="134" y="873"/>
      <point x="139" y="873" type="curve"/>
      <point x="179" y="868" type="line"/>
      <point x="183" y="866"/>
      <point x="185" y="864"/>
      <point x="185" y="862" type="curve" smooth="yes"/>
      <point x="185" y="806" type="line" smooth="yes"/>
      <point x="185" y="802"/>
      <point x="183" y="800"/>
      <point x="178" y="800" type="curve" smooth="yes"/>
    </contour>
  </outline>
</glyph>
<glyph name="uogonek" format="1">
  <advance width="304"/>
  <unicode hex="0173"/>
  <outline>
    <contour>
      <point x="58" y="700" type="line"/>
      <point x="35" y="-20" type="line"/>
      <point x="128" y="-20" type="line"/>
      <point x="90" y="-95" type="line"/>
      <point x="178" y="-209" type="line"/>
      <point x="291" y="-146" type="line"/>
      <point x="275" y="-100" type="line"/>
      <point x="186" y="-145" type="line"/>
      <point x="152" y="-83" type="line"/>
      <point x="171" y="-20" type="line"/>
      <point x="265" y="-20" type="line"/>
      <point x="265" y="683" type="line"/>
      <point x="195" y="687" type="line"/>
      <point x="195" y="68" type="line"/>
      <point x="111" y="62" type="line"/>
      <point x="132" y="700" type="line"/>
    </contour>
  </outline>
</glyph>
<glyph name="Wcircumflex" format="1">
  <advance width="334"/>
  <unicode hex="0174"/>
  <outline>
    <contour>
      <point x="257" y="710" type="line"/>
      <point x="257" y="86" type="line"/>
      <point x="252" y="86" type="line"/>
      <point x="185" y="598" type="line"/>
      <point x="142" y="598" type="line"/>
      <point x="85" y="86" type="line"/>
      <point x="81" y="86" type="line"/>
      <point x="81" y="710" type="line"/>
      <point x="8" y="710" type="line"/>
      <point x="47" y="0" type="line"/>
      <point x="102" y="0" type="line"/>
      <point x="163" y="417" type="line"/>
      <point x="167" y="417" type="line"/>
      <point x="228" y="0" type="line"/>
      <point x="291" y="0" type="line"/>
      <point x="327" y="710" type="line"/>
    </contour>
    <contour>
      <point x="80" y="787" type="line"/>
      <point x="109" y="768" type="line"/>
      <point x="174" y="830" type="line"/>
      <point x="239" y="768" type="line"/>
      <point x="268" y="787" type="line"/>
      <point x="194" y="897" type="line"/>
      <point x="154" y="900" type="line"/>
    </contour>
  </outline>
</glyph>
<glyph name="wcircumflex" format="1">
  <advance width="419"/>
  <unicode hex="0175"/>
  <outline>
    <contour>
      <point x="379" y="10" type="line"/>
      <point x="412" y="700" type="line"/>
      <point x="351" y="700" type="line"/>
      <point x="329" y="33" type="line"/>
      <point x="324" y="33" type="line"/>
      <point x="241" y="539" type="line"/>
      <point x="247" y="690" type="line"/>
      <point x="175" y="690" type="line"/>
      <point x="126" y="37" type="line"/>
      <point x="122" y="37" type="line"/>
      <point x="71" y="710" type="line"/>
      <point x="6" y="710" type="line"/>
      <point x="75" y="0" type="line"/>
      <point x="180" y="0" type="line"/>
      <point x="203" y="500" type="line"/>
      <point x="207" y="500" type="line"/>
      <point x="283" y="10" type="line"/>
    </contour>
    <contour>
      <point x="115" y="787" type="line"/>
      <point x="144" y="768" type="line"/>
      <point x="209" y="830" type="line"/>
      <point x="274" y="768" type="line"/>
      <point x="303" y="787" type="line"/>
      <point x="229" y="897" type="line"/>
      <point x="189" y="900" type="line"/>
    </contour>
  </outline>
</glyph>
<glyph name="zdotaccent" format="1">
  <advance width="292"/>
  <unicode hex="017C"/>
  <outline>
    <contour>
      <point x="43" y="0" type="line"/>
      <point x="25" y="33" type="line"/>
      <point x="169" y="662" type="line"/>
      <point x="41" y="646" type="line"/>
      <point x="41" y="710" type="line"/>
      <point x="247" y="710" type="line"/>
      <point x="133" y="56" type="line"/>
      <point x="267" y="47" type="line"/>
      <point x="267" y="0" type="line"/>
    </contour>
    <contour>
      <point x="116" y="802" type="line"/>
      <point x="205" y="805" type="line"/>
      <point x="205" y="900" type="line"/>
      <point x="112" y="900" type="line"/>
    </contour>
  </outline>
</glyph>
<glyph name="longs" format="1">
  <advance width="311"/>
  <unicode hex="017F"/>
  <outline>
    <contour>
      <point x="137" y="-20" type="line"/>
      <point x="110" y="616" type="line"/>
      <point x="269" y="628" type="line"/>
      <point x="269" y="690" type="line"/>
      <point x="55" y="710" type="line"/>
      <point x="55" y="-20" type="line"/>
    </contour>
  </outline>
</glyph>
<glyph name="uni018F" format="1">
  <advance width="338"/>
  <unicode hex="018F"/>
  <outline>
    <contour>
      <point x="226" y="362" type="line"/>
      <point x="40" y="374" type="line"/>
      <point x="40" y="20" type="line"/>
      <point x="250" y="20" type="line" smooth="yes"/>
      <point x="277" y="20"/>
      <point x="302" y="45"/>
      <point x="302" y="97" type="curve" smooth="yes"/>
      <point x="302" y="656" type="line"/>
      <point x="266" y="710" type="line"/>
      <point x="53" y="710" type="line"/>
      <point x="59" y="651" type="line"/>
      <point x="193" y="651" type="line" smooth="yes"/>
      <point x="222" y="651"/>
      <point x="234" y="634"/>
      <point x="235" y="606" type="curve"/>
    </contour>
    <contour>
      <point x="196" y="92" type="curve"/>
      <point x="123" y="92" type="line" smooth="yes"/>
      <point x="115" y="92"/>
      <point x="103" y="96"/>
      <point x="103" y="104" type="curve" smooth="yes"/>
      <point x="93" y="300" type="line"/>
      <point x="224" y="300" type="line"/>
      <point x="217" y="110" type="line" smooth="yes"/>
      <point x="217" y="101"/>
      <point x="205" y="92"/>
    </contour>
  </outline>
</glyph>
<glyph name="uni01C7" format="1">
  <advance width="535"/>
  <unicode hex="01C7"/>
  <outline>
    <contour>
      <point x="40" y="0" type="line"/>
      <point x="229" y="0" type="line"/>
      <point x="229" y="64" type="line"/>
      <point x="116" y="82" type="line"/>
      <point x="137" y="710" type="line"/>
      <point x="40" y="710" type="line"/>
    </contour>
    <contour>
      <point x="305" y="0" type="line"/>
      <point x="486" y="0" type="line"/>
      <point x="495" y="710" type="line"/>
      <point x="399" y="710" type="line"/>
      <point x="399" y="664" type="line"/>
      <point x="417" y="616" type="line"/>
      <point x="417" y="49" type="line"/>
      <point x="353" y="54" type="line"/>
      <point x="348" y="192" type="line"/>
      <point x="269" y="172" type="line"/>
    </contour>
  </outline>
</glyph>
<glyph name="uni01F1" format="1">
  <advance width="614"/>
  <unicode hex="01F1"/>
  <outline>
    <contour>
      <point x="50" y="710" type="line"/>
      <point x="50" y="0" type="line"/>
      <point x="183" y="0" type="line"/>
      <point x="244" y="57" type="line"/>
      <point x="274" y="600" type="line"/>
      <point x="274" y="664"/>
      <point x="229" y="710"/>
      <point x="165" y="710" type="curve" smooth="yes"/>
    </contour>
    <contour>
      <point x="177" y="84" type="line" smooth="yes"/>
      <point x="177" y="79"/>
      <point x="174" y="75"/>
      <point x="168" y="71" type="curve"/>
      <point x="131" y="66" type="line"/>
      <point x="122" y="72" type="line"/>
      <point x="122" y="638" type="line" smooth="yes"/>
      <point x="122" y="641"/>
      <point x="128" y="644"/>
      <point x="131" y="644" type="curve" smooth="yes"/>
      <point x="176" y="644" type="line" smooth="yes"/>
      <point x="184" y="644"/>
      <point x="188" y="642"/>
      <point x="188" y="638" type="curve" smooth="yes"/>
    </contour>
    <contour>
      <point x="360" y="0" type="line"/>
      <point x="342" y="22" type="line"/>
      <point x="376" y="88" type="line"/>
      <point x="494" y="638" type="line"/>
      <point x="358" y="670" type="line"/>
      <point x="358" y="710" type="line"/>
      <point x="553" y="710" type="line"/>
      <point x="584" y="679" type="line"/>
      <point x="442" y="84" type="line"/>
      <point x="576" y="65" type="line"/>
      <point x="584" y="0" type="line"/>
    </contour>
  </outline>
</glyph>
<glyph name="Aringacute" format="1">
  <advance width="304"/>
  <unicode hex="01FA"/>
  <outline>
    <contour>
      <point x="95" y="810" type="line"/>
      <point x="95" y="710" type="line"/>
      <point x="71" y="710" type="line"/>
      <point x="26" y="0" type="line"/>
      <point x="73" y="0" type="line"/>
      <point x="119" y="278" type="line"/>
      <point x="170" y="278" type="line"/>
      <point x="196" y="0" type="line"/>
      <point x="254" y="0" type="line"/>
      <point x="254" y="710" type="line"/>
      <point x="234" y="710" type="line"/>
      <point x="234" y="810" type="line"/>
    </contour>
    <contour>
      <point x="191" y="331" type="line" smooth="yes"/>
      <point x="191" y="327"/>
      <point x="189" y="325"/>
      <point x="185" y="325" type="curve" smooth="yes"/>
      <point x="142" y="325" type="line" smooth="yes"/>
      <point x="138" y="325"/>
      <point x="136" y="327"/>
      <point x="136" y="330" type="curve" smooth="yes"/>
      <point x="136" y="672" type="line"/>
      <point x="136" y="675" type="line"/>
      <point x="190" y="675" type="line"/>
      <point x="191" y="674"/>
      <point x="191" y="673"/>
      <point x="191" y="672" type="curve"/>
    </contour>
    <contour>
      <point x="108" y="861" type="line"/>
      <point x="124" y="823" type="line"/>
      <point x="250" y="845" type="line"/>
      <point x="241" y="900" type="line"/>
    </contour>
    <contour>
      <point x="141" y="710" type="line" smooth="yes"/>
      <point x="139" y="710"/>
      <point x="138" y="711"/>
      <point x="138" y="714" type="curve" smooth="yes"/>
      <point x="138" y="780" type="line" smooth="yes"/>
      <point x="138" y="782"/>
      <point x="141" y="783"/>
      <point x="146" y="783" type="curve"/>
      <point x="186" y="778" type="line"/>
      <point x="190" y="776"/>
      <point x="192" y="774"/>
      <point x="192" y="772" type="curve" smooth="yes"/>
      <point x="192" y="716" type="line" smooth="yes"/>
      <point x="192" y="712"/>
      <point x="190" y="710"/>
      <point x="185" y="710" type="curve" smooth="yes"/>
    </contour>
  </outline>
</glyph>
<glyph name="aringacute" format="1">
  <advance width="308"/>
  <unicode hex="01FB"/>
  <outline>
    <contour>
      <point x="84" y="810" type="line"/>
      <point x="84" y="710" type="line"/>
      <point x="76" y="710" type="line"/>
      <point x="31" y="0" type="line"/>
      <point x="93" y="0" type="line"/>
      <point x="115" y="228" type="line"/>
      <point x="195" y="266" type="line"/>
      <point x="231" y="0" type="line"/>
      <point x="275" y="0" type="line"/>
      <point x="234" y="710" type="line"/>
      <point x="223" y="710" type="line"/>
      <point x="223" y="810" type="line"/>
    </contour>
    <contour>
      <point x="176" y="303" type="line" smooth="yes"/>
      <point x="176" y="299"/>
      <point x="174" y="297"/>
      <point x="170" y="297" type="curve"/>
      <point x="133" y="291" type="line"/>
      <point x="129" y="291"/>
      <point x="127" y="293"/>
      <point x="127" y="296" type="curve" smooth="yes"/>
      <point x="127" y="648" type="line" smooth="yes"/>
      <point x="127" y="653"/>
      <point x="129" y="656"/>
      <point x="133" y="658" type="curve"/>
      <point x="176" y="668" type="line"/>
      <point x="180" y="668"/>
      <point x="182" y="666"/>
      <point x="182" y="662" type="curve" smooth="yes"/>
    </contour>
    <contour>
      <point x="88" y="861" type="line"/>
      <point x="104" y="823" type="line"/>
      <point x="230" y="845" type="line"/>
      <point x="221" y="900" type="line"/>
    </contour>
    <contour>
      <point x="130" y="710" type="line" smooth="yes"/>
      <point x="128" y="710"/>
      <point x="127" y="711"/>
      <point x="127" y="714" type="curve" smooth="yes"/>
      <point x="127" y="780" type="line" smooth="yes"/>
      <point x="127" y="782"/>
      <point x="130" y="783"/>
      <point x="135" y="783" type="curve"/>
      <point x="175" y="778" type="line"/>
      <point x="179" y="776"/>
      <point x="181" y="774"/>
      <point x="181" y="772" type="curve" smooth="yes"/>
      <point x="181" y="716" type="line" smooth="yes"/>
      <point x="181" y="712"/>
      <point x="179" y="710"/>
      <point x="174" y="710" type="curve" smooth="yes"/>
    </contour>
  </outline>
</glyph>
<glyph name="ogonek" format="1">
  <advance width="301"/>
  <unicode hex="02DB"/>
  <outline>
    <contour>
      <point x="103" y="50" type="line"/>
      <point x="30" y="-95" type="line"/>
      <point x="118" y="-209" type="line"/>
      <point x="231" y="-146" type="line"/>
      <point x="215" y="-100" type="line"/>
      <point x="126" y="-145" type="line"/>
      <point x="92" y="-83" type="line"/>
      <point x="118" y="0" type="line"/>
      <point x="118" y="40" type="line"/>
    </contour>
    <contour>
      <point x="231" y="10" type="move" name="_ogonek"/>
    </contour>
  </outline>
</glyph>
<glyph name="hungarumlaut" format="1">
  <advance width="300"/>
  <unicode hex="02DD"/>
  <outline>
    <contour>
      <point x="150" y="852" type="line"/>
      <point x="104" y="900" type="line"/>
      <point x="20" y="792" type="line"/>
      <point x="54" y="768" type="line"/>
    </contour>
    <contour>
      <point x="280" y="852" type="line"/>
      <point x="234" y="900" type="line"/>
      <point x="150" y="792" type="line"/>
      <point x="184" y="768" type="line"/>
    </contour>
    <contour>
      <point x="149" y="900" type="move" name="top"/>
    </contour>
    <contour>
      <point x="134" y="710" type="move" name="_top"/>
    </contour>
  </outline>
</glyph>
<glyph name="uni0306" format="1">
  <advance width="273"/>
  <unicode hex="0306"/>
  <outline>
    <contour>
      <point x="30" y="894" type="line"/>
      <point x="34" y="813" type="line"/>
      <point x="79" y="785" type="line"/>
      <point x="204" y="785" type="line"/>
      <point x="243" y="824" type="line"/>
      <point x="243" y="900" type="line"/>
      <point x="197" y="896" type="line"/>
      <point x="200" y="830" type="line"/>
      <point x="90" y="835" type="line"/>
      <point x="78" y="846" type="line"/>
      <point x="83" y="894" type="line"/>
    </contour>
    <contour>
      <point x="137" y="492" type="move" name="_top"/>
    </contour>
  </outline>
</glyph>
<glyph name="uni0308" format="1">
  <advance width="289"/>
  <unicode hex="0308"/>
  <outline>
    <contour>
      <point x="30" y="815" type="line"/>
      <point x="109" y="815" type="line"/>
      <point x="113" y="898" type="line"/>
      <point x="30" y="895" type="line"/>
    </contour>
    <contour>
      <point x="183" y="815" type="line"/>
      <point x="259" y="818" type="line"/>
      <point x="259" y="898" type="line"/>
      <point x="180" y="898" type="line"/>
    </contour>
    <contour>
      <point x="145" y="492" type="move" name="_top"/>
    </contour>
  </outline>
</glyph>
<glyph name="uni0327" format="1">
  <advance width="0"/>
  <unicode hex="0327"/>
  <outline>
    <contour>
      <point x="139" y="-45" type="line"/>
      <point x="179" y="32" type="line"/>
      <point x="114" y="53" type="line"/>
      <point x="74" y="-89" type="line"/>
      <point x="179" y="-97" type="line"/>
      <point x="169" y="-150" type="line"/>
      <point x="40" y="-150" type="line"/>
      <point x="40" y="-208" type="line"/>
      <point x="163" y="-208" type="line" smooth="yes"/>
      <point x="192" y="-208"/>
      <point x="227" y="-176"/>
      <point x="227" y="-148" type="curve"/>
      <point x="239" y="-45" type="line"/>
    </contour>
    <contour>
      <point x="146" y="0" type="move" name="_bottom"/>
    </contour>
    <contour>
      <point x="146" y="-226" type="move" name="bottom"/>
    </contour>
  </outline>
</glyph>
<glyph name="mu" format="1">
  <advance width="304"/>
  <unicode hex="03BC"/>
  <outline>
    <contour>
      <point x="58" y="690" type="line"/>
      <point x="35" y="-9" type="line"/>
      <point x="43" y="-236" type="line"/>
      <point x="132" y="-222" type="line"/>
      <point x="89" y="-9" type="line"/>
      <point x="265" y="-9" type="line"/>
      <point x="265" y="683" type="line"/>
      <point x="195" y="687" type="line"/>
      <point x="195" y="79" type="line"/>
      <point x="111" y="73" type="line"/>
      <point x="132" y="710" type="line"/>
    </contour>
  </outline>
</glyph>
<glyph name="uni1E0D" format="1">
  <advance width="333"/>
  <unicode hex="1E0D"/>
  <outline>
    <contour>
      <point x="41" y="710" type="line"/>
      <point x="62" y="84" type="line"/>
      <point x="56" y="56" type="line"/>
      <point x="56" y="0" type="line"/>
      <point x="224" y="0" type="line" smooth="yes"/>
      <point x="233" y="0"/>
      <point x="283" y="4"/>
      <point x="283" y="56" type="curve" smooth="yes"/>
      <point x="283" y="678" type="line"/>
      <point x="206" y="710" type="line"/>
    </contour>
    <contour>
      <point x="136" y="69" type="line" smooth="yes"/>
      <point x="130" y="69"/>
      <point x="127" y="72"/>
      <point x="127" y="78" type="curve" smooth="yes"/>
      <point x="127" y="638" type="line" smooth="yes"/>
      <point x="127" y="644"/>
      <point x="130" y="647"/>
      <point x="136" y="647" type="curve" smooth="yes"/>
      <point x="212" y="647" type="line" smooth="yes"/>
      <point x="219" y="647"/>
      <point x="221" y="646"/>
      <point x="221" y="638" type="curve" smooth="yes"/>
      <point x="201" y="131" type="line"/>
      <point x="198" y="76"/>
      <point x="185" y="69"/>
      <point x="168" y="69" type="curve" smooth="yes"/>
    </contour>
    <contour>
      <point x="117" y="-154" type="line"/>
      <point x="206" y="-151" type="line"/>
      <point x="206" y="-56" type="line"/>
      <point x="113" y="-56" type="line"/>
    </contour>
  </outline>
</glyph>
<glyph name="uni1E24" format="1">
  <advance width="325"/>
  <unicode hex="1E24"/>
  <outline>
    <contour>
      <point x="220" y="-20" type="line"/>
      <point x="285" y="-20" type="line"/>
      <point x="264" y="624" type="line"/>
      <point x="279" y="648" type="line"/>
      <point x="279" y="690" type="line"/>
      <point x="192" y="690" type="line"/>
      <point x="192" y="400" type="line"/>
      <point x="118" y="385" type="line"/>
      <point x="118" y="710" type="line"/>
      <point x="37" y="710" type="line"/>
      <point x="60" y="0" type="line"/>
      <point x="130" y="0" type="line"/>
      <point x="119" y="317" type="line"/>
      <point x="199" y="326" type="line"/>
    </contour>
    <contour>
      <point x="122" y="-154" type="line"/>
      <point x="211" y="-151" type="line"/>
      <point x="211" y="-56" type="line"/>
      <point x="118" y="-56" type="line"/>
    </contour>
  </outline>
</glyph>
<glyph name="uni1E44" format="1">
  <advance width="344"/>
  <unicode hex="1E44"/>
  <outline>
    <contour>
      <point x="310" y="0" type="line"/>
      <point x="195" y="0" type="line"/>
      <point x="93" y="651" type="line"/>
      <point x="89" y="651" type="line"/>
      <point x="89" y="0" type="line"/>
      <point x="30" y="0" type="line"/>
      <point x="30" y="710" type="line"/>
      <point x="146" y="710" type="line"/>
      <point x="236" y="58" type="line"/>
      <point x="240" y="58" type="line"/>
      <point x="262" y="710" type="line"/>
      <point x="320" y="710" type="line"/>
    </contour>
    <contour>
      <point x="144" y="802" type="line"/>
      <point x="233" y="805" type="line"/>
      <point x="233" y="900" type="line"/>
      <point x="140" y="900" type="line"/>
    </contour>
  </outline>
</glyph>
<glyph name="uni1E6C" format="1">
  <advance width="275"/>
  <unicode hex="1E6C"/>
  <outline>
    <contour>
      <point x="250" y="710" type="line"/>
      <point x="35" y="710" type="line"/>
      <point x="25" y="672" type="line"/>
      <point x="94" y="660" type="line"/>
      <point x="94" y="20" type="line"/>
      <point x="178" y="20" type="line"/>
      <point x="178" y="653" type="line"/>
      <point x="250" y="653" type="line"/>
    </contour>
    <contour>
      <point x="90" y="-154" type="line"/>
      <point x="179" y="-151" type="line"/>
      <point x="179" y="-56" type="line"/>
      <point x="86" y="-56" type="line"/>
    </contour>
  </outline>
</glyph>
<glyph name="wdieresis" format="1">
  <advance width="419"/>
  <unicode hex="1E85"/>
  <outline>
    <contour>
      <point x="283" y="10" type="line"/>
      <point x="207" y="500" type="line"/>
      <point x="203" y="500" type="line"/>
      <point x="180" y="0" type="line"/>
      <point x="75" y="0" type="line"/>
      <point x="6" y="710" type="line"/>
      <point x="71" y="710" type="line"/>
      <point x="122" y="37" type="line"/>
      <point x="126" y="37" type="line"/>
      <point x="175" y="690" type="line"/>
      <point x="247" y="690" type="line"/>
      <point x="241" y="539" type="line"/>
      <point x="324" y="33" type="line"/>
      <point x="329" y="33" type="line"/>
      <point x="351" y="700" type="line"/>
      <point x="412" y="700" type="line"/>
      <point x="379" y="10" type="line"/>
    </contour>
    <contour>
      <point x="95" y="815" type="line"/>
      <point x="174" y="815" type="line"/>
      <point x="178" y="898" type="line"/>
      <point x="95" y="895" type="line"/>
    </contour>
    <contour>
      <point x="248" y="815" type="line"/>
      <point x="324" y="818" type="line"/>
      <point x="324" y="898" type="line"/>
      <point x="245" y="898" type="line"/>
    </contour>
  </outline>
</glyph>
<glyph name="uni1EB9" format="1">
  <advance width="330"/>
  <unicode hex="1EB9"/>
  <outline>
    <contour>
      <point x="269" y="83" type="line"/>
      <point x="127" y="75" type="line"/>
      <point x="127" y="362" type="line"/>
      <point x="269" y="356" type="line"/>
      <point x="269" y="404" type="line"/>
      <point x="144" y="427" type="line"/>
      <point x="144" y="654" type="line"/>
      <point x="269" y="648" type="line"/>
      <point x="269" y="710" type="line"/>
      <point x="55" y="710" type="line"/>
      <point x="55" y="0" type="line"/>
      <point x="269" y="0" type="line"/>
    </contour>
    <contour>
      <point x="115" y="-154" type="line"/>
      <point x="204" y="-151" type="line"/>
      <point x="204" y="-56" type="line"/>
      <point x="111" y="-56" type="line"/>
    </contour>
  </outline>
</glyph>
<glyph name="uni1EBC" format="1">
  <advance width="316"/>
  <unicode hex="1EBC"/>
  <outline>
    <contour>
      <point x="269" y="121" type="line"/>
      <point x="134" y="103" type="line"/>
      <point x="134" y="358" type="line"/>
      <point x="238" y="376" type="line"/>
      <point x="238" y="426" type="line"/>
      <point x="129" y="426" type="line"/>
      <point x="129" y="632" type="line"/>
      <point x="272" y="632" type="line"/>
      <point x="272" y="710" type="line"/>
      <point x="69" y="710" type="line"/>
      <point x="46" y="20" type="line"/>
      <point x="281" y="20" type="line"/>
    </contour>
    <contour>
      <point x="112" y="897"/>
      <point x="100" y="892"/>
      <point x="89" y="883" type="curve" smooth="yes"/>
      <point x="63" y="860" type="line"/>
      <point x="66" y="791" type="line"/>
      <point x="134" y="844" type="line"/>
      <point x="178" y="813" type="line" smooth="yes"/>
      <point x="195" y="801"/>
      <point x="208" y="794"/>
      <point x="223" y="794" type="curve" smooth="yes"/>
      <point x="235" y="794"/>
      <point x="254" y="805"/>
      <point x="267" y="817" type="curve" smooth="yes"/>
      <point x="291" y="840" type="line"/>
      <point x="291" y="900" type="line"/>
      <point x="219" y="852" type="line"/>
      <point x="181" y="877" type="line" smooth="yes"/>
      <point x="165" y="888"/>
      <point x="146" y="897"/>
      <point x="127" y="897" type="curve" smooth="yes"/>
    </contour>
  </outline>
</glyph>
<glyph name="uni1ECA" format="1">
  <advance width="178"/>
  <unicode hex="1ECA"/>
  <outline>
    <contour>
      <point x="133" y="710" type="line"/>
      <point x="32" y="710" type="line"/>
      <point x="32" y="664" type="line"/>
      <point x="50" y="616" type="line"/>
      <point x="50" y="0" type="line"/>
      <point x="124" y="0" type="line"/>
    </contour>
    <contour>
      <point x="44" y="-154" type="line"/>
      <point x="133" y="-151" type="line"/>
      <point x="133" y="-56" type="line"/>
      <point x="40" y="-56" type="line"/>
    </contour>
  </outline>
</glyph>
<glyph name="uni1ECD" format="1">
  <advance width="312"/>
  <unicode hex="1ECD"/>
  <outline>
    <contour>
      <point x="262" y="662" type="line" smooth="yes"/>
      <point x="262" y="689"/>
      <point x="238" y="710"/>
      <point x="201" y="710" type="curve" smooth="yes"/>
      <point x="120" y="710"/>
      <point x="78" y="702"/>
      <point x="49" y="686" type="curve"/>
      <point x="49" y="56" type="line" smooth="yes"/>
      <point x="49" y="17"/>
      <point x="66" y="0"/>
      <point x="122" y="0" type="curve" smooth="yes"/>
      <point x="255" y="0" type="line"/>
    </contour>
    <contour>
      <point x="119" y="640" type="line"/>
      <point x="128" y="646" type="line"/>
      <point x="190" y="643" type="line"/>
      <point x="196" y="642"/>
      <point x="199" y="640"/>
      <point x="199" y="637" type="curve" smooth="yes"/>
      <point x="193" y="66" type="line"/>
      <point x="184" y="57" type="line"/>
      <point x="113" y="63" type="line"/>
    </contour>
    <contour>
      <point x="113" y="-154" type="line"/>
      <point x="202" y="-151" type="line"/>
      <point x="202" y="-56" type="line"/>
      <point x="109" y="-56" type="line"/>
    </contour>
  </outline>
</glyph>
<glyph name="uni1EF8" format="1">
  <advance width="247"/>
  <unicode hex="1EF8"/>
  <outline>
    <contour>
      <point x="164" y="-20" type="line"/>
      <point x="97" y="-20" type="line"/>
      <point x="97" y="353" type="line"/>
      <point x="30" y="472" type="line"/>
      <point x="30" y="710" type="line"/>
      <point x="94" y="710" type="line"/>
      <point x="107" y="431" type="line"/>
      <point x="143" y="428" type="line"/>
      <point x="161" y="710" type="line"/>
      <point x="217" y="710" type="line"/>
      <point x="217" y="451" type="line"/>
      <point x="164" y="389" type="line"/>
    </contour>
    <contour>
      <point x="59" y="897"/>
      <point x="47" y="892"/>
      <point x="36" y="883" type="curve" smooth="yes"/>
      <point x="10" y="860" type="line"/>
      <point x="13" y="791" type="line"/>
      <point x="81" y="844" type="line"/>
      <point x="125" y="813" type="line" smooth="yes"/>
      <point x="142" y="801"/>
      <point x="155" y="794"/>
      <point x="170" y="794" type="curve" smooth="yes"/>
      <point x="182" y="794"/>
      <point x="201" y="805"/>
      <point x="214" y="817" type="curve" smooth="yes"/>
      <point x="238" y="840" type="line"/>
      <point x="238" y="900" type="line"/>
      <point x="166" y="852" type="line"/>
      <point x="128" y="877" type="line" smooth="yes"/>
      <point x="112" y="888"/>
      <point x="93" y="897"/>
      <point x="74" y="897" type="curve" smooth="yes"/>
    </contour>
  </outline>
</glyph>
<glyph name="quoteleft" format="1">
  <advance width="198"/>
  <unicode hex="2018"/>
  <outline>
    <contour>
      <point x="43" y="487" type="line"/>
      <point x="142" y="492" type="line"/>
      <point x="105" y="597" type="line"/>
      <point x="152" y="706" type="line"/>
      <point x="103" y="723" type="line"/>
      <point x="48" y="597" type="line"/>
    </contour>
  </outline>
</glyph>
<glyph name="quoteright" format="1">
  <advance width="198"/>
  <unicode hex="2019"/>
  <outline>
    <contour>
      <point x="152" y="714" type="line"/>
      <point x="53" y="709" type="line"/>
      <point x="90" y="604" type="line"/>
      <point x="43" y="495" type="line"/>
      <point x="92" y="478" type="line"/>
      <point x="147" y="604" type="line"/>
    </contour>
  </outline>
</glyph>
<glyph name="quotesinglbase" format="1">
  <advance width="198"/>
  <unicode hex="201A"/>
  <outline>
    <contour>
      <point x="152" y="92" type="line"/>
      <point x="53" y="87" type="line"/>
      <point x="90" y="-18" type="line"/>
      <point x="43" y="-127" type="line"/>
      <point x="92" y="-144" type="line"/>
      <point x="147" y="-18" type="line"/>
    </contour>
  </outline>
</glyph>
<glyph name="quotedblleft" format="1">
  <advance width="348"/>
  <unicode hex="201C"/>
  <outline>
    <contour>
      <point x="105" y="597" type="line"/>
      <point x="152" y="706" type="line"/>
      <point x="103" y="723" type="line"/>
      <point x="48" y="597" type="line"/>
      <point x="43" y="487" type="line"/>
      <point x="142" y="492" type="line"/>
    </contour>
    <contour>
      <point x="251" y="597" type="line"/>
      <point x="298" y="706" type="line"/>
      <point x="249" y="723" type="line"/>
      <point x="194" y="597" type="line"/>
      <point x="189" y="487" type="line"/>
      <point x="288" y="492" type="line"/>
    </contour>
  </outline>
</glyph>
<glyph name="quotedblright" format="1">
  <advance width="348"/>
  <unicode hex="201D"/>
  <outline>
    <contour>
      <point x="152" y="715" type="line"/>
      <point x="53" y="710" type="line"/>
      <point x="90" y="605" type="line"/>
      <point x="43" y="496" type="line"/>
      <point x="92" y="479" type="line"/>
      <point x="147" y="605" type="line"/>
    </contour>
    <contour>
      <point x="298" y="715" type="line"/>
      <point x="199" y="710" type="line"/>
      <point x="236" y="605" type="line"/>
      <point x="189" y="496" type="line"/>
      <point x="238" y="479" type="line"/>
      <point x="293" y="605" type="line"/>
    </contour>
  </outline>
</glyph>
<glyph name="quotedblbase" format="1">
  <advance width="348"/>
  <unicode hex="201E"/>
  <outline>
    <contour>
      <point x="152" y="92" type="line"/>
      <point x="53" y="87" type="line"/>
      <point x="90" y="-18" type="line"/>
      <point x="43" y="-127" type="line"/>
      <point x="92" y="-144" type="line"/>
      <point x="147" y="-18" type="line"/>
    </contour>
    <contour>
      <point x="299" y="92" type="line"/>
      <point x="200" y="87" type="line"/>
      <point x="237" y="-18" type="line"/>
      <point x="190" y="-127" type="line"/>
      <point x="239" y="-144" type="line"/>
      <point x="294" y="-18" type="line"/>
    </contour>
  </outline>
</glyph>
<glyph name="bullet" format="1">
  <advance width="263"/>
  <unicode hex="2022"/>
  <outline>
    <contour>
      <point x="192" y="272" type="line"/>
      <point x="197" y="420" type="line"/>
      <point x="44" y="425" type="line"/>
      <point x="51" y="272" type="line"/>
    </contour>
  </outline>
</glyph>
<glyph name="Euro" format="1">
  <advance width="339"/>
  <unicode hex="20AC"/>
  <outline>
    <contour>
      <point x="277" y="399" type="line"/>
      <point x="280" y="458" type="line"/>
      <point x="149" y="458" type="line"/>
      <point x="156" y="650" type="line" smooth="yes"/>
      <point x="156" y="654"/>
      <point x="161" y="656"/>
      <point x="172" y="656" type="curve"/>
      <point x="273" y="642" type="line"/>
      <point x="299" y="710" type="line"/>
      <point x="80" y="710" type="line"/>
      <point x="80" y="457" type="line"/>
      <point x="20" y="457" type="line"/>
      <point x="20" y="389" type="line"/>
      <point x="80" y="391" type="line"/>
      <point x="80" y="313" type="line"/>
      <point x="23" y="311" type="line"/>
      <point x="20" y="252" type="line"/>
      <point x="80" y="252" type="line"/>
      <point x="80" y="0" type="line"/>
      <point x="289" y="0" type="line"/>
      <point x="296" y="29" type="line"/>
      <point x="260" y="69" type="line"/>
      <point x="149" y="69" type="line" smooth="yes"/>
      <point x="142" y="69"/>
      <point x="137" y="75"/>
      <point x="137" y="78" type="curve" smooth="yes"/>
      <point x="143" y="252" type="line"/>
      <point x="276" y="252" type="line"/>
      <point x="280" y="320" type="line"/>
      <point x="145" y="315" type="line"/>
      <point x="147" y="394" type="line"/>
    </contour>
  </outline>
</glyph>
<glyph name="uni20B2" format="1">
  <advance width="339"/>
  <unicode hex="20B2"/>
  <outline>
    <contour>
      <point x="227" y="559" type="line"/>
      <point x="271" y="559" type="line"/>
      <point x="289" y="668" type="line"/>
      <point x="289" y="710" type="line"/>
      <point x="207" y="710" type="line"/>
      <point x="207" y="809" type="line"/>
      <point x="153" y="811" type="line"/>
      <point x="158" y="710" type="line"/>
      <point x="89" y="710" type="line" smooth="yes"/>
      <point x="60" y="710"/>
      <point x="41" y="687"/>
      <point x="40" y="656" type="curve"/>
      <point x="62" y="0" type="line"/>
      <point x="125" y="0" type="line"/>
      <point x="129" y="-99" type="line"/>
      <point x="177" y="-99" type="line"/>
      <point x="177" y="0" type="line"/>
      <point x="212" y="0" type="line" smooth="yes"/>
      <point x="247" y="0"/>
      <point x="282" y="22"/>
      <point x="282" y="58" type="curve" smooth="yes"/>
      <point x="282" y="333" type="line"/>
      <point x="180" y="343" type="line"/>
      <point x="180" y="291" type="line"/>
      <point x="219" y="272" type="line"/>
      <point x="219" y="106" type="line" smooth="yes"/>
      <point x="219" y="98"/>
      <point x="207" y="94"/>
      <point x="199" y="94" type="curve" smooth="yes"/>
      <point x="153" y="94" type="line" smooth="yes"/>
      <point x="144" y="94"/>
      <point x="132" y="103"/>
      <point x="132" y="112" type="curve" smooth="yes"/>
      <point x="115" y="630" type="line"/>
      <point x="227" y="655" type="line"/>
    </contour>
  </outline>
</glyph>
<glyph name="estimated" format="1">
  <advance width="538"/>
  <unicode hex="212E"/>
  <outline>
    <contour>
      <point x="428" y="372" type="line"/>
      <point x="428" y="632" type="line"/>
      <point x="338" y="710" type="line"/>
      <point x="143" y="710" type="line"/>
      <point x="50" y="628" type="line"/>
      <point x="50" y="92" type="line"/>
      <point x="139" y="0" type="line"/>
      <point x="365" y="0" type="line"/>
      <point x="428" y="76" type="line"/>
      <point x="428" y="213" type="line"/>
      <point x="363" y="213" type="line"/>
      <point x="361" y="106" type="line" smooth="yes"/>
      <point x="361" y="94"/>
      <point x="340" y="70"/>
      <point x="332" y="70" type="curve" smooth="yes"/>
      <point x="160" y="70" type="line" smooth="yes"/>
      <point x="154" y="70"/>
      <point x="151" y="72"/>
      <point x="151" y="76" type="curve" smooth="yes"/>
      <point x="151" y="372" type="line"/>
    </contour>
    <contour>
      <point x="309" y="658" type="line" smooth="yes"/>
      <point x="319" y="658"/>
      <point x="328" y="655"/>
      <point x="328" y="649" type="curve" smooth="yes"/>
      <point x="324" y="442" type="line"/>
      <point x="151" y="442" type="line"/>
      <point x="151" y="649" type="line" smooth="yes"/>
      <point x="151" y="655"/>
      <point x="154" y="658"/>
      <point x="160" y="658" type="curve" smooth="yes"/>
    </contour>
  </outline>
</glyph>
<glyph name="oneeighth" format="1">
  <advance width="449"/>
  <unicode hex="215B"/>
  <outline>
    <contour>
      <point x="429" y="679" type="line"/>
      <point x="395" y="707" type="line"/>
      <point x="34" y="33" type="line"/>
      <point x="73" y="-2" type="line"/>
    </contour>
    <contour>
      <point x="20" y="395" type="line"/>
      <point x="170" y="395" type="line"/>
      <point x="164" y="449" type="line"/>
      <point x="117" y="447" type="line"/>
      <point x="117" y="710" type="line"/>
      <point x="87" y="710" type="line"/>
      <point x="22" y="679" type="line"/>
      <point x="21" y="652" type="line"/>
      <point x="73" y="649" type="line"/>
      <point x="65" y="445" type="line"/>
      <point x="20" y="444" type="line"/>
    </contour>
    <contour>
      <point x="314" y="38" type="line"/>
      <point x="327" y="134" type="line"/>
      <point x="379" y="121" type="line"/>
      <point x="375" y="38" type="line"/>
    </contour>
    <contour>
      <point x="329" y="276" type="line"/>
      <point x="379" y="277" type="line"/>
      <point x="371" y="168" type="line"/>
      <point x="327" y="179" type="line"/>
    </contour>
    <contour>
      <point x="407" y="0" type="line"/>
      <point x="419" y="24" type="line"/>
      <point x="423" y="140" type="line"/>
      <point x="394" y="157" type="line"/>
      <point x="416" y="168" type="line"/>
      <point x="424" y="312" type="line"/>
      <point x="317" y="317" type="line"/>
      <point x="281" y="301" type="line"/>
      <point x="282" y="175" type="line"/>
      <point x="304" y="156" type="line"/>
      <point x="279" y="131" type="line"/>
      <point x="269" y="29" type="line"/>
      <point x="279" y="0" type="line"/>
    </contour>
  </outline>
</glyph>
<glyph name="arrowleft" format="1">
  <advance width="512"/>
  <unicode hex="2190"/>
  <note>
    arrowleft
  </note>
  <outline>
    <contour>
      <point x="32" y="370" type="line"/>
      <point x="32" y="414" type="line"/>
      <point x="211" y="607" type="line"/>
      <point x="246" y="572" type="line"/>
      <point x="133" y="427" type="line"/>
      <point x="133" y="419" type="line"/>
      <point x="484" y="407" type="line"/>
      <point x="484" y="355" type="line"/>
      <point x="123" y="354" type="line"/>
      <point x="253" y="231" type="line"/>
      <point x="253" y="210" type="line"/>
      <point x="208" y="177" type="line"/>
    </contour>
  </outline>
</glyph>
<glyph name="arrowup" format="1">
  <advance width="486"/>
  <unicode hex="2191"/>
  <note>
    arrowup
  </note>
  <outline>
    <contour>
      <point x="43" y="451" type="line"/>
      <point x="222" y="642" type="line"/>
      <point x="263" y="650" type="line"/>
      <point x="443" y="443" type="line"/>
      <point x="408" y="413" type="line"/>
      <point x="283" y="538" type="line"/>
      <point x="276" y="539" type="line"/>
      <point x="265" y="118" type="line"/>
      <point x="213" y="118" type="line"/>
      <point x="213" y="551" type="line"/>
      <point x="205" y="552" type="line"/>
      <point x="97" y="413" type="line"/>
      <point x="75" y="410" type="line"/>
    </contour>
  </outline>
</glyph>
<glyph name="uni2199" format="1">
  <advance width="501"/>
  <unicode hex="2199"/>
  <note>
    uni2199
  </note>
  <outline>
    <contour>
      <point x="71" y="511" type="line"/>
      <point x="120" y="511" type="line"/>
      <point x="143" y="326" type="line"/>
      <point x="149" y="321" type="line"/>
      <point x="405" y="562" type="line"/>
      <point x="442" y="526" type="line"/>
      <point x="185" y="272" type="line"/>
      <point x="366" y="275" type="line"/>
      <point x="381" y="260" type="line"/>
      <point x="373" y="205" type="line"/>
      <point x="112" y="217" type="line"/>
      <point x="81" y="248" type="line"/>
    </contour>
  </outline>
</glyph>
<glyph name="partialdiff" format="1">
  <advance width="339"/>
  <unicode hex="2202"/>
  <outline>
    <contour>
      <point x="224" y="422" type="line"/>
      <point x="143" y="422" type="line"/>
      <point x="49" y="388" type="line"/>
      <point x="49" y="0" type="line"/>
      <point x="299" y="0" type="line"/>
      <point x="283" y="447" type="line"/>
      <point x="140" y="728" type="line"/>
      <point x="91" y="704" type="line"/>
    </contour>
    <contour>
      <point x="113" y="340" type="line"/>
      <point x="214" y="361" type="line"/>
      <point x="224" y="70" type="line"/>
      <point x="113" y="60" type="line"/>
    </contour>
  </outline>
</glyph>
<glyph name="product" format="1">
  <advance width="298"/>
  <unicode hex="220F"/>
  <outline>
    <contour>
      <point x="253" y="710" type="line"/>
      <point x="49" y="702" type="line"/>
      <point x="49" y="0" type="line"/>
      <point x="106" y="0" type="line"/>
      <point x="106" y="647" type="line"/>
      <point x="183" y="641" type="line"/>
      <point x="203" y="23" type="line"/>
      <point x="253" y="23" type="line"/>
    </contour>
  </outline>
</glyph>
<glyph name="summation" format="1">
  <advance width="316"/>
  <unicode hex="2211"/>
  <outline>
    <contour>
      <point x="259" y="101" type="line"/>
      <point x="104" y="83" type="line"/>
      <point x="241" y="388" type="line"/>
      <point x="119" y="632" type="line"/>
      <point x="282" y="652" type="line"/>
      <point x="282" y="710" type="line"/>
      <point x="79" y="710" type="line"/>
      <point x="24" y="642" type="line"/>
      <point x="153" y="365" type="line"/>
      <point x="12" y="31" type="line"/>
      <point x="23" y="0" type="line"/>
      <point x="271" y="10" type="line"/>
    </contour>
  </outline>
</glyph>
<glyph name="minus" format="1">
  <advance width="339"/>
  <unicode hex="2212"/>
  <outline>
    <contour>
      <point x="10" y="388" type="line"/>
      <point x="13" y="330" type="line"/>
      <point x="328" y="330" type="line"/>
      <point x="328" y="379" type="line"/>
    </contour>
  </outline>
</glyph>
<glyph name="radical" format="1">
  <advance width="391"/>
  <unicode hex="221A"/>
  <outline>
    <contour>
      <point x="85" y="269" type="line"/>
      <point x="133" y="-10" type="line"/>
      <point x="199" y="0" type="line"/>
      <point x="294" y="647" type="line"/>
      <point x="381" y="656" type="line"/>
      <point x="377" y="710" type="line"/>
      <point x="239" y="710" type="line"/>
      <point x="171" y="78" type="line"/>
      <point x="167" y="78" type="line"/>
      <point x="129" y="325" type="line"/>
      <point x="10" y="325" type="line"/>
      <point x="14" y="288" type="line"/>
    </contour>
  </outline>
</glyph>
<glyph name="integral" format="1">
  <advance width="349"/>
  <unicode hex="222B"/>
  <outline>
    <contour>
      <point x="145" y="636" type="curve"/>
      <point x="134" y="100" type="line"/>
      <point x="82" y="55" type="line"/>
      <point x="64" y="161" type="line"/>
      <point x="20" y="161" type="line"/>
      <point x="20" y="0" type="line"/>
      <point x="130" y="0" type="line"/>
      <point x="205" y="94" type="line"/>
      <point x="205" y="660" type="line"/>
      <point x="277" y="655" type="line"/>
      <point x="277" y="570" type="line"/>
      <point x="329" y="563" type="line"/>
      <point x="329" y="710" type="line"/>
      <point x="214" y="710" type="line" smooth="yes"/>
      <point x="175" y="710"/>
      <point x="146" y="677"/>
    </contour>
  </outline>
</glyph>
<glyph name="approxequal" format="1">
  <advance width="339"/>
  <unicode hex="2248"/>
  <outline>
    <contour>
      <point x="11" y="416" type="line"/>
      <point x="14" y="352" type="line"/>
      <point x="56" y="379" type="line" smooth="yes"/>
      <point x="89" y="400"/>
      <point x="97" y="405"/>
      <point x="112" y="405" type="curve" smooth="yes"/>
      <point x="123" y="405"/>
      <point x="136" y="398"/>
      <point x="156" y="391" type="curve" smooth="yes"/>
      <point x="246" y="358" type="line"/>
      <point x="329" y="406" type="line"/>
      <point x="329" y="466" type="line"/>
      <point x="274" y="440" type="line" smooth="yes"/>
      <point x="249" y="428"/>
      <point x="234" y="421"/>
      <point x="223" y="421" type="curve" smooth="yes"/>
      <point x="208" y="421"/>
      <point x="193" y="427"/>
      <point x="164" y="439" type="curve" smooth="yes"/>
      <point x="105" y="463" type="line"/>
    </contour>
    <contour>
      <point x="11" y="264" type="line"/>
      <point x="14" y="200" type="line"/>
      <point x="56" y="227" type="line" smooth="yes"/>
      <point x="89" y="248"/>
      <point x="97" y="253"/>
      <point x="112" y="253" type="curve" smooth="yes"/>
      <point x="123" y="253"/>
      <point x="136" y="246"/>
      <point x="156" y="239" type="curve" smooth="yes"/>
      <point x="246" y="206" type="line"/>
      <point x="329" y="254" type="line"/>
      <point x="329" y="314" type="line"/>
      <point x="274" y="288" type="line" smooth="yes"/>
      <point x="249" y="276"/>
      <point x="234" y="269"/>
      <point x="223" y="269" type="curve" smooth="yes"/>
      <point x="208" y="269"/>
      <point x="193" y="275"/>
      <point x="164" y="287" type="curve" smooth="yes"/>
      <point x="105" y="311" type="line"/>
    </contour>
  </outline>
</glyph>
<glyph name="notequal" format="1">
  <advance width="339"/>
  <unicode hex="2260"/>
  <outline>
    <contour>
      <point x="23" y="281" type="line"/>
      <point x="20" y="222" type="line"/>
      <point x="90" y="222" type="line"/>
      <point x="41" y="113" type="line"/>
      <point x="85" y="78" type="line"/>
      <point x="148" y="222" type="line"/>
      <point x="314" y="222" type="line"/>
      <point x="318" y="290" type="line"/>
      <point x="175" y="285" type="line"/>
      <point x="219" y="386" type="line"/>
      <point x="315" y="389" type="line"/>
      <point x="318" y="448" type="line"/>
      <point x="246" y="447" type="line"/>
      <point x="298" y="567" type="line"/>
      <point x="259" y="595" type="line"/>
      <point x="192" y="447" type="line"/>
      <point x="20" y="447" type="line"/>
      <point x="20" y="379" type="line"/>
      <point x="163" y="384" type="line"/>
      <point x="118" y="284" type="line"/>
    </contour>
  </outline>
</glyph>
<glyph name="greaterequal" format="1">
  <advance width="339"/>
  <unicode hex="2265"/>
  <outline>
    <contour>
      <point x="308" y="373" type="line"/>
      <point x="304" y="439" type="line"/>
      <point x="66" y="591" type="line"/>
      <point x="30" y="533" type="line"/>
      <point x="236" y="409" type="line"/>
      <point x="236" y="405" type="line"/>
      <point x="32" y="316" type="line"/>
      <point x="87" y="233" type="line"/>
    </contour>
    <contour>
      <point x="10" y="178" type="line"/>
      <point x="13" y="120" type="line"/>
      <point x="328" y="120" type="line"/>
      <point x="328" y="169" type="line"/>
    </contour>
  </outline>
</glyph>
<glyph name="triagup" format="1">
  <advance width="683"/>
  <unicode hex="25B2"/>
  <note>
    triagup
  </note>
  <outline>
    <contour>
      <point x="636" y="103" type="line"/>
      <point x="653" y="131" type="line"/>
      <point x="385" y="591" type="line"/>
      <point x="339" y="615" type="line"/>
      <point x="30" y="144" type="line"/>
      <point x="45" y="117" type="line"/>
    </contour>
  </outline>
</glyph>
<glyph name="uni25C7" format="1">
  <advance width="680"/>
  <unicode hex="25C7"/>
  <note>
    uni25C7
  </note>
  <outline>
    <contour>
      <point x="635" y="327" type="line"/>
      <point x="628" y="368" type="line"/>
      <point x="372" y="654" type="line"/>
      <point x="331" y="667" type="line"/>
      <point x="45" y="371" type="line"/>
      <point x="54" y="328" type="line"/>
      <point x="307" y="46" type="line"/>
      <point x="348" y="34" type="line"/>
    </contour>
    <contour>
      <point x="112" y="369" type="line"/>
      <point x="334" y="595" type="line"/>
      <point x="366" y="585" type="line"/>
      <point x="561" y="368" type="line"/>
      <point x="568" y="334" type="line"/>
      <point x="347" y="106" type="line"/>
      <point x="315" y="117" type="line"/>
      <point x="117" y="337" type="line"/>
    </contour>
  </outline>
</glyph>
<glyph name="lozenge" format="1">
  <advance width="330"/>
  <unicode hex="25CA"/>
  <outline>
    <contour>
      <point x="325" y="340" type="line"/>
      <point x="224" y="710" type="line"/>
      <point x="144" y="700" type="line"/>
      <point x="5" y="350" type="line"/>
      <point x="106" y="0" type="line"/>
      <point x="186" y="10" type="line"/>
    </contour>
    <contour>
      <point x="83" y="379" type="line"/>
      <point x="165" y="634" type="line"/>
      <point x="169" y="632" type="line"/>
      <point x="243" y="318" type="line"/>
      <point x="165" y="56" type="line"/>
      <point x="157" y="58" type="line"/>
    </contour>
  </outline>
</glyph>
<glyph name="uni270B" format="1">
  <advance width="549"/>
  <unicode hex="270B"/>
  <note>
    Black_Hand_Right
  </note>
  <outline>
    <contour>
      <point x="416" y="23" type="line"/>
      <point x="456" y="119" type="line"/>
      <point x="456" y="186"/>
      <point x="449" y="262"/>
      <point x="437" y="326" type="curve"/>
      <point x="471" y="380"/>
      <point x="491" y="437"/>
      <point x="511" y="518" type="curve"/>
      <point x="507" y="527"/>
      <point x="482" y="537"/>
      <point x="474" y="539" type="curve"/>
      <point x="444" y="482" type="line"/>
      <point x="404" y="351" type="line"/>
      <point x="398" y="353" type="line"/>
      <point x="415" y="535" type="line"/>
      <point x="408" y="644" type="line"/>
      <point x="401" y="648"/>
      <point x="388" y="651"/>
      <point x="378" y="651" type="curve" smooth="yes"/>
      <point x="375" y="651"/>
      <point x="369" y="651"/>
      <point x="366" y="650" type="curve"/>
      <point x="349" y="544" type="line"/>
      <point x="360" y="454"/>
      <point x="359" y="424"/>
      <point x="351" y="351" type="curve"/>
      <point x="342" y="349" type="line"/>
      <point x="324" y="701" type="line"/>
      <point x="314" y="703"/>
      <point x="303" y="704"/>
      <point x="288" y="704" type="curve" smooth="yes"/>
      <point x="281" y="704"/>
      <point x="269" y="704"/>
      <point x="263" y="703" type="curve"/>
      <point x="259" y="598" type="line"/>
      <point x="275" y="517"/>
      <point x="286" y="420"/>
      <point x="287" y="334" type="curve"/>
      <point x="281" y="334"/>
      <point x="281" y="333"/>
      <point x="276" y="331" type="curve"/>
      <point x="266" y="394"/>
      <point x="248" y="423"/>
      <point x="234" y="473" type="curve"/>
      <point x="218" y="514"/>
      <point x="201" y="555"/>
      <point x="184" y="601" type="curve"/>
      <point x="143" y="582" type="line"/>
      <point x="169" y="471" type="line"/>
      <point x="201" y="387"/>
      <point x="236" y="257"/>
      <point x="236" y="238" type="curve" smooth="yes"/>
      <point x="236" y="236"/>
      <point x="214" y="223"/>
      <point x="210" y="219" type="curve"/>
      <point x="166" y="260"/>
      <point x="114" y="280"/>
      <point x="64" y="285" type="curve"/>
      <point x="32" y="252" type="line"/>
      <point x="43" y="196" type="line"/>
      <point x="53" y="198"/>
      <point x="63" y="201"/>
      <point x="71" y="201" type="curve" smooth="yes"/>
      <point x="162" y="201"/>
      <point x="253" y="97"/>
      <point x="291" y="4" type="curve"/>
    </contour>
  </outline>
</glyph>
<glyph name="Aogonek.alt" format="1">
  <advance width="308"/>
  <outline>
    <contour>
      <point x="269" y="0" type="line"/>
      <point x="266" y="40" type="line"/>
      <point x="253" y="60" type="line"/>
      <point x="181" y="-95" type="line"/>
      <point x="269" y="-209" type="line"/>
      <point x="366" y="-146" type="line"/>
      <point x="350" y="-100" type="line"/>
      <point x="277" y="-145" type="line"/>
      <point x="243" y="-83" type="line"/>
    </contour>
    <component base="A.alt"/>
    <contour>
      <point x="188" y="0" type="move" name="_bottom"/>
    </contour>
    <contour>
      <point x="188" y="-226" type="move" name="bottom"/>
    </contour>
  </outline>
</glyph>
<glyph name="B.alt" format="1">
  <advance width="324"/>
  <outline>
    <contour>
      <point x="271" y="447" type="line"/>
      <point x="271" y="648" type="line"/>
      <point x="271" y="688"/>
      <point x="214" y="710"/>
      <point x="173" y="710" type="curve"/>
      <point x="40" y="710" type="line"/>
      <point x="40" y="0" type="line"/>
      <point x="176" y="0" type="line"/>
      <point x="187" y="0"/>
      <point x="271" y="1"/>
      <point x="271" y="30" type="curve"/>
      <point x="291" y="282" type="line"/>
      <point x="291" y="331"/>
      <point x="251" y="359"/>
      <point x="230" y="364" type="curve"/>
    </contour>
    <contour>
      <point x="103" y="645" type="line"/>
      <point x="191" y="649" type="line"/>
      <point x="200" y="649"/>
      <point x="205" y="648"/>
      <point x="205" y="645" type="curve"/>
      <point x="196" y="406" type="line"/>
      <point x="195" y="403"/>
      <point x="195" y="402"/>
      <point x="194" y="401" type="curve"/>
      <point x="191" y="398"/>
      <point x="189" y="397"/>
      <point x="187" y="397" type="curve"/>
      <point x="115" y="397" type="line"/>
      <point x="107" y="397"/>
      <point x="103" y="400"/>
      <point x="103" y="405" type="curve"/>
    </contour>
    <contour>
      <point x="115" y="59" type="line"/>
      <point x="115" y="331" type="line"/>
      <point x="115" y="332"/>
      <point x="121" y="337"/>
      <point x="126" y="337" type="curve"/>
      <point x="202" y="327" type="line"/>
      <point x="206" y="326"/>
      <point x="206" y="324"/>
      <point x="206" y="321" type="curve"/>
      <point x="206" y="116" type="line"/>
      <point x="206" y="85"/>
      <point x="174" y="76"/>
      <point x="126" y="56" type="curve"/>
    </contour>
  </outline>
</glyph>
<glyph name="D.alt" format="1">
  <advance width="315"/>
  <outline>
    <contour>
      <point x="275" y="678" type="line"/>
      <point x="198" y="710" type="line"/>
      <point x="33" y="710" type="line"/>
      <point x="54" y="84" type="line"/>
      <point x="48" y="56" type="line"/>
      <point x="48" y="0" type="line"/>
      <point x="216" y="0" type="line" smooth="yes"/>
      <point x="225" y="0"/>
      <point x="275" y="4"/>
      <point x="275" y="56" type="curve" smooth="yes"/>
    </contour>
    <contour>
      <point x="190" y="76"/>
      <point x="177" y="69"/>
      <point x="160" y="69" type="curve"/>
      <point x="128" y="69" type="line" smooth="yes"/>
      <point x="122" y="69"/>
      <point x="119" y="72"/>
      <point x="119" y="78" type="curve" smooth="yes"/>
      <point x="119" y="638" type="line" smooth="yes"/>
      <point x="119" y="644"/>
      <point x="122" y="647"/>
      <point x="128" y="647" type="curve" smooth="yes"/>
      <point x="204" y="647" type="line" smooth="yes"/>
      <point x="211" y="647"/>
      <point x="213" y="646"/>
      <point x="213" y="638" type="curve" smooth="yes"/>
      <point x="193" y="131" type="line"/>
    </contour>
    <contour>
      <point x="161" y="710" type="move" name="top"/>
    </contour>
    <contour>
      <point x="155" y="0" type="move" name="bottom"/>
    </contour>
  </outline>
</glyph>
<glyph name="F_I.alt" format="1">
  <advance width="426"/>
  <outline>
    <contour>
      <point x="55" y="710" type="line"/>
      <point x="55" y="-20" type="line"/>
      <point x="134" y="-20" type="line"/>
      <point x="114" y="375" type="line"/>
      <point x="309" y="390" type="line"/>
      <point x="309" y="20" type="line"/>
      <point x="390" y="20" type="line"/>
      <point x="369" y="447" type="line"/>
      <point x="131" y="447" type="line"/>
      <point x="131" y="619" type="line"/>
      <point x="353" y="631" type="line"/>
      <point x="353" y="690" type="line"/>
    </contour>
  </outline>
</glyph>
<glyph name="F_L.alt" format="1">
  <advance width="548"/>
  <outline>
    <contour>
      <point x="324" y="0" type="line"/>
      <point x="518" y="0" type="line"/>
      <point x="518" y="69" type="line"/>
      <point x="405" y="82" type="line"/>
      <point x="390" y="105" type="line"/>
      <point x="390" y="690" type="line"/>
      <point x="55" y="710" type="line"/>
      <point x="55" y="-20" type="line"/>
      <point x="134" y="-20" type="line"/>
      <point x="114" y="372" type="line"/>
      <point x="259" y="389" type="line"/>
      <point x="259" y="447" type="line"/>
      <point x="131" y="447" type="line"/>
      <point x="131" y="619" type="line"/>
      <point x="324" y="628" type="line"/>
    </contour>
  </outline>
</glyph>
<glyph name="F_L" format="1">
  <advance width="511"/>
  <outline>
    <contour>
      <point x="121" y="0" type="line"/>
      <point x="121" y="355" type="line"/>
      <point x="228" y="373" type="line"/>
      <point x="228" y="423" type="line"/>
      <point x="116" y="423" type="line"/>
      <point x="116" y="624" type="line"/>
      <point x="309" y="624" type="line"/>
      <point x="309" y="0" type="line"/>
      <point x="495" y="0" type="line"/>
      <point x="495" y="64" type="line"/>
      <point x="382" y="82" type="line"/>
      <point x="403" y="710" type="line"/>
      <point x="59" y="710" type="line"/>
      <point x="36" y="0" type="line"/>
    </contour>
  </outline>
</glyph>
<glyph name="Iacute_J.loclNLD" format="1">
  <advance width="454"/>
  <outline>
    <contour>
      <point x="133" y="710" type="line"/>
      <point x="32" y="710" type="line"/>
      <point x="32" y="664" type="line"/>
      <point x="50" y="616" type="line"/>
      <point x="50" y="0" type="line"/>
      <point x="124" y="0" type="line"/>
    </contour>
    <contour>
      <point x="400" y="0" type="line"/>
      <point x="219" y="0" type="line"/>
      <point x="183" y="172" type="line"/>
      <point x="262" y="192" type="line"/>
      <point x="267" y="54" type="line"/>
      <point x="331" y="49" type="line"/>
      <point x="331" y="616" type="line"/>
      <point x="313" y="664" type="line"/>
      <point x="313" y="710" type="line"/>
      <point x="409" y="710" type="line"/>
    </contour>
    <contour>
      <point x="20" y="792" type="line"/>
      <point x="54" y="768" type="line"/>
      <point x="150" y="852" type="line"/>
      <point x="104" y="900" type="line"/>
    </contour>
    <contour>
      <point x="301" y="792" type="line"/>
      <point x="335" y="768" type="line"/>
      <point x="431" y="852" type="line"/>
      <point x="385" y="900" type="line"/>
    </contour>
  </outline>
</glyph>
<glyph name="J.alt" format="1">
  <advance width="264"/>
  <outline>
    <contour>
      <point x="31" y="19"/>
      <point x="54" y="0"/>
      <point x="73" y="0" type="curve"/>
      <point x="209" y="0" type="line"/>
      <point x="228" y="710" type="line"/>
      <point x="191" y="710" type="line"/>
      <point x="151" y="696" type="line"/>
      <point x="151" y="89" type="line"/>
      <point x="76" y="94" type="line"/>
      <point x="71" y="172" type="line"/>
      <point x="22" y="172" type="line"/>
      <point x="30" y="38" type="line" smooth="yes"/>
    </contour>
  </outline>
</glyph>
<glyph name="L_O_S" format="1">
  <advance width="643"/>
  <outline>
    <contour>
      <point x="602" y="0" type="line"/>
      <point x="602" y="84" type="line"/>
      <point x="50" y="65" type="line"/>
      <point x="57" y="0" type="line"/>
    </contour>
    <contour>
      <point x="233" y="710" type="line"/>
      <point x="190" y="678" type="line"/>
      <point x="190" y="293" type="line"/>
      <point x="249" y="251" type="line"/>
      <point x="325" y="251" type="line"/>
      <point x="388" y="287" type="line"/>
      <point x="388" y="682" type="line"/>
      <point x="348" y="710" type="line"/>
    </contour>
    <contour>
      <point x="320" y="322" type="line"/>
      <point x="320" y="318"/>
      <point x="317" y="316"/>
      <point x="311" y="316" type="curve"/>
      <point x="269" y="316" type="line"/>
      <point x="263" y="316"/>
      <point x="260" y="318"/>
      <point x="260" y="322" type="curve"/>
      <point x="260" y="654" type="line"/>
      <point x="260" y="660"/>
      <point x="263" y="663"/>
      <point x="269" y="663" type="curve"/>
      <point x="322" y="663" type="line"/>
      <point x="328" y="663"/>
      <point x="331" y="660"/>
      <point x="331" y="654" type="curve"/>
    </contour>
    <contour>
      <point x="484" y="647" type="line"/>
      <point x="601" y="666" type="line"/>
      <point x="601" y="710" type="line"/>
      <point x="474" y="710" type="line"/>
      <point x="453" y="710"/>
      <point x="434" y="684"/>
      <point x="434" y="663" type="curve"/>
      <point x="434" y="409" type="line"/>
      <point x="533" y="379" type="line"/>
      <point x="547" y="203" type="line"/>
      <point x="324" y="203" type="line"/>
      <point x="324" y="140" type="line"/>
      <point x="537" y="140" type="line"/>
      <point x="566" y="140"/>
      <point x="601" y="172"/>
      <point x="601" y="200" type="curve"/>
      <point x="601" y="424" type="line"/>
      <point x="496" y="457" type="line"/>
    </contour>
    <contour>
      <point x="273" y="140" type="line"/>
      <point x="273" y="204" type="line"/>
      <point x="110" y="217" type="line"/>
      <point x="131" y="710" type="line"/>
      <point x="49" y="710" type="line"/>
      <point x="49" y="140" type="line"/>
    </contour>
  </outline>
</glyph>
<glyph name="Ldot.alt" format="1">
  <advance width="330"/>
  <outline>
    <contour>
      <point x="290" y="417" type="line"/>
      <point x="194" y="413" type="line"/>
      <point x="194" y="321" type="line"/>
      <point x="286" y="321" type="line"/>
    </contour>
    <component base="L.alt"/>
  </outline>
</glyph>
<glyph name="M.alt" format="1">
  <advance width="376"/>
  <outline>
    <contour>
      <point x="40" y="710" type="line"/>
      <point x="40" y="0" type="line"/>
      <point x="92" y="0" type="line"/>
      <point x="92" y="589" type="line"/>
      <point x="96" y="589" type="line"/>
      <point x="167" y="150" type="line"/>
      <point x="200" y="157" type="line"/>
      <point x="269" y="535" type="line"/>
      <point x="276" y="535" type="line"/>
      <point x="276" y="0" type="line"/>
      <point x="342" y="0" type="line"/>
      <point x="319" y="710" type="line"/>
      <point x="261" y="710" type="line"/>
      <point x="193" y="276" type="line"/>
      <point x="185" y="276" type="line"/>
      <point x="112" y="710" type="line"/>
    </contour>
  </outline>
</glyph>
<glyph name="Napostrophe.alt" format="1">
  <advance width="437"/>
  <outline>
    <contour>
      <point x="120" y="710" type="line"/>
      <point x="39" y="710" type="line"/>
      <point x="39" y="628" type="line"/>
      <point x="81" y="628" type="line"/>
      <point x="35" y="554" type="line"/>
      <point x="90" y="538" type="line"/>
      <point x="123" y="628" type="line"/>
    </contour>
    <contour>
      <point x="317" y="-20" type="line"/>
      <point x="385" y="-20" type="line"/>
      <point x="405" y="710" type="line"/>
      <point x="346" y="710" type="line"/>
      <point x="346" y="131" type="line"/>
      <point x="339" y="131" type="line"/>
      <point x="238" y="710" type="line"/>
      <point x="177" y="710" type="line"/>
      <point x="145" y="-20" type="line"/>
      <point x="196" y="-20" type="line"/>
      <point x="215" y="554" type="line"/>
      <point x="219" y="554" type="line"/>
    </contour>
  </outline>
</glyph>
<glyph name="Sacute.loclPLK" format="1">
  <advance width="287"/>
  <outline>
    <contour>
      <point x="247" y="661" type="line"/>
      <point x="247" y="710" type="line"/>
      <point x="80" y="710" type="line" smooth="yes"/>
      <point x="59" y="710"/>
      <point x="40" y="684"/>
      <point x="40" y="663" type="curve" smooth="yes"/>
      <point x="40" y="366" type="line"/>
      <point x="155" y="336" type="line"/>
      <point x="179" y="68" type="line"/>
      <point x="40" y="68" type="line"/>
      <point x="40" y="0" type="line"/>
      <point x="183" y="0" type="line" smooth="yes"/>
      <point x="212" y="0"/>
      <point x="247" y="32"/>
      <point x="247" y="60" type="curve" smooth="yes"/>
      <point x="247" y="388" type="line"/>
      <point x="120" y="421" type="line"/>
      <point x="105" y="642" type="line"/>
    </contour>
    <contour>
      <point x="115" y="769" type="line"/>
      <point x="156" y="761" type="line"/>
      <point x="209" y="877" type="line"/>
      <point x="146" y="897" type="line"/>
    </contour>
  </outline>
</glyph>
<glyph name="U.alt" format="1">
  <advance width="289"/>
  <outline>
    <contour>
      <point x="104" y="62" type="line"/>
      <point x="125" y="700" type="line"/>
      <point x="51" y="700" type="line"/>
      <point x="28" y="-20" type="line"/>
      <point x="258" y="-20" type="line"/>
      <point x="258" y="683" type="line"/>
      <point x="188" y="687" type="line"/>
      <point x="188" y="68" type="line"/>
    </contour>
    <contour>
      <point x="157" y="710" type="move" name="top"/>
    </contour>
    <contour>
      <point x="143" y="0" type="move" name="bottom"/>
    </contour>
  </outline>
</glyph>
<glyph name="V.alt" format="1">
  <advance width="277"/>
  <outline>
    <contour>
      <point x="14" y="710" type="line"/>
      <point x="73" y="0" type="line"/>
      <point x="178" y="0" type="line"/>
      <point x="275" y="700" type="line"/>
      <point x="209" y="700" type="line"/>
      <point x="142" y="25" type="line"/>
      <point x="137" y="25" type="line"/>
      <point x="77" y="710" type="line"/>
    </contour>
  </outline>
</glyph>
<glyph name="Y.alt" format="1">
  <advance width="257"/>
  <outline>
    <contour>
      <point x="105" y="0" type="line"/>
      <point x="182" y="0" type="line"/>
      <point x="165" y="369" type="line"/>
      <point x="201" y="431" type="line"/>
      <point x="245" y="710" type="line"/>
      <point x="175" y="710" type="line"/>
      <point x="145" y="415" type="line"/>
      <point x="137" y="413" type="line"/>
      <point x="103" y="700" type="line"/>
      <point x="12" y="700" type="line"/>
      <point x="105" y="374" type="line"/>
    </contour>
    <contour>
      <point x="127" y="710" type="move" name="top"/>
    </contour>
    <contour>
      <point x="120" y="0" type="move" name="bottom"/>
    </contour>
  </outline>
</glyph>
<glyph name="Z.alt" format="1">
  <advance width="282"/>
  <outline>
    <contour>
      <point x="20" y="33" type="line"/>
      <point x="38" y="0" type="line"/>
      <point x="262" y="0" type="line"/>
      <point x="262" y="47" type="line"/>
      <point x="128" y="56" type="line"/>
      <point x="242" y="710" type="line"/>
      <point x="36" y="710" type="line"/>
      <point x="36" y="646" type="line"/>
      <point x="164" y="662" type="line"/>
    </contour>
    <contour>
      <point x="147" y="710" type="move" name="top"/>
    </contour>
    <contour>
      <point x="140" y="0" type="move" name="bottom"/>
    </contour>
  </outline>
</glyph>
<glyph name="Zacute.loclPLK" format="1">
  <advance width="302"/>
  <outline>
    <contour>
      <point x="48" y="0" type="line"/>
      <point x="30" y="22" type="line"/>
      <point x="64" y="88" type="line"/>
      <point x="182" y="638" type="line"/>
      <point x="46" y="670" type="line"/>
      <point x="46" y="710" type="line"/>
      <point x="241" y="710" type="line"/>
      <point x="272" y="679" type="line"/>
      <point x="130" y="84" type="line"/>
      <point x="264" y="65" type="line"/>
      <point x="272" y="0" type="line"/>
    </contour>
    <contour>
      <point x="122" y="769" type="line"/>
      <point x="163" y="761" type="line"/>
      <point x="216" y="877" type="line"/>
      <point x="153" y="897" type="line"/>
    </contour>
  </outline>
</glyph>
<glyph name="a.alt" format="1">
  <advance width="278"/>
  <outline>
    <contour>
      <point x="195" y="582" type="line"/>
      <point x="233" y="549" type="line"/>
      <point x="233" y="0" type="line"/>
      <point x="78" y="0" type="line"/>
      <point x="35" y="38" type="line"/>
      <point x="35" y="292" type="line"/>
      <point x="76" y="324" type="line"/>
      <point x="169" y="324" type="line"/>
      <point x="165" y="517" type="line"/>
      <point x="165" y="521"/>
      <point x="163" y="525"/>
      <point x="157" y="525" type="curve"/>
      <point x="96" y="532" type="line"/>
      <point x="89" y="532"/>
      <point x="86" y="529"/>
      <point x="85" y="524" type="curve"/>
      <point x="81" y="460" type="line"/>
      <point x="41" y="460" type="line"/>
      <point x="38" y="582" type="line"/>
    </contour>
    <contour>
      <point x="163" y="58" type="line"/>
      <point x="172" y="58"/>
      <point x="172" y="61"/>
      <point x="172" y="67" type="curve"/>
      <point x="167" y="271" type="line"/>
      <point x="111" y="258" type="line"/>
      <point x="106" y="257"/>
      <point x="102" y="255"/>
      <point x="102" y="247" type="curve"/>
      <point x="102" y="67" type="line"/>
      <point x="102" y="61"/>
      <point x="106" y="58"/>
      <point x="111" y="58" type="curve"/>
    </contour>
    <contour>
      <point x="136" y="582" type="move" name="top"/>
    </contour>
    <contour>
      <point x="87" y="0" type="move" name="bottom"/>
    </contour>
  </outline>
</glyph>
<glyph name="acute.loclPLK" format="1">
  <advance width="154"/>
  <outline>
    <contour>
      <point x="30" y="769" type="line"/>
      <point x="71" y="761" type="line"/>
      <point x="124" y="877" type="line"/>
      <point x="61" y="897" type="line"/>
    </contour>
    <contour>
      <point x="77" y="492" type="move" name="_top"/>
    </contour>
  </outline>
</glyph>
<glyph name="baraccentmedium" format="1">
  <advance width="363"/>
  <outline>
    <contour>
      <point x="351" y="338" type="line"/>
      <point x="351" y="387" type="line"/>
      <point x="12" y="396" type="line"/>
      <point x="15" y="338" type="line"/>
    </contour>
    <contour>
      <point x="180" y="710" type="move" name="top"/>
    </contour>
    <contour>
      <point x="174" y="0" type="move" name="bottom"/>
    </contour>
  </outline>
</glyph>
<glyph name="caron.alt" format="1">
  <advance width="171"/>
  <outline>
    <contour>
      <point x="135" y="899" type="line"/>
      <point x="49" y="895" type="line"/>
      <point x="81" y="803" type="line"/>
      <point x="30" y="728" type="line"/>
      <point x="73" y="713" type="line"/>
      <point x="141" y="803" type="line"/>
    </contour>
    <contour>
      <point x="85" y="900" type="move" name="top"/>
    </contour>
    <contour>
      <point x="85" y="710" type="move" name="_top"/>
    </contour>
  </outline>
</glyph>
<glyph name="commaaccentinvert" format="1">
  <advance width="148"/>
  <outline>
    <contour>
      <point x="33" y="728" type="line"/>
      <point x="114" y="728" type="line"/>
      <point x="114" y="810" type="line"/>
      <point x="72" y="810" type="line"/>
      <point x="118" y="884" type="line"/>
      <point x="63" y="900" type="line"/>
      <point x="30" y="810" type="line"/>
    </contour>
    <contour>
      <point x="76" y="900" type="move" name="top"/>
    </contour>
    <contour>
      <point x="76" y="710" type="move" name="_top"/>
    </contour>
  </outline>
</glyph>
<glyph name="dotbelow" format="1">
  <advance width="153"/>
  <outline>
    <contour>
      <point x="34" y="-154" type="line"/>
      <point x="123" y="-151" type="line"/>
      <point x="123" y="-56" type="line"/>
      <point x="30" y="-56" type="line"/>
    </contour>
  </outline>
</glyph>
<glyph name="eight.ss01" format="1">
  <advance width="339"/>
  <outline>
    <contour>
      <point x="68" y="0" type="line"/>
      <point x="266" y="0" type="line"/>
      <point x="294" y="62" type="line"/>
      <point x="295" y="318" type="line"/>
      <point x="234" y="371" type="line"/>
      <point x="286" y="403" type="line"/>
      <point x="308" y="672" type="line"/>
      <point x="231" y="709" type="line"/>
      <point x="77" y="698" type="line"/>
      <point x="72" y="399" type="line"/>
      <point x="120" y="369" type="line"/>
      <point x="53" y="337" type="line"/>
      <point x="44" y="54" type="line"/>
    </contour>
    <contour>
      <point x="116" y="57" type="line"/>
      <point x="123" y="315" type="line"/>
      <point x="170" y="335" type="line"/>
      <point x="213" y="306" type="line"/>
      <point x="224" y="56" type="line"/>
    </contour>
    <contour>
      <point x="229" y="422" type="line"/>
      <point x="192" y="398" type="line"/>
      <point x="148" y="424" type="line"/>
      <point x="150" y="648" type="line"/>
      <point x="242" y="646" type="line"/>
    </contour>
  </outline>
</glyph>
<glyph name="eng.alt" format="1">
  <advance width="293"/>
  <outline>
    <contour>
      <point x="51" y="522" type="line"/>
      <point x="51" y="0" type="line"/>
      <point x="117" y="0" type="line"/>
      <point x="118" y="520" type="line"/>
      <point x="178" y="522" type="line" smooth="yes"/>
      <point x="187" y="522"/>
      <point x="187" y="519"/>
      <point x="187" y="513" type="curve" smooth="yes"/>
      <point x="181" y="-46" type="line" smooth="yes"/>
      <point x="181" y="-51"/>
      <point x="179" y="-55"/>
      <point x="175" y="-55" type="curve"/>
      <point x="102" y="-64" type="line"/>
      <point x="102" y="-119" type="line"/>
      <point x="205" y="-119" type="line"/>
      <point x="248" y="-70" type="line"/>
      <point x="248" y="554" type="line"/>
      <point x="208" y="582" type="line"/>
      <point x="30" y="582" type="line"/>
      <point x="30" y="534" type="line"/>
    </contour>
  </outline>
</glyph>
<glyph name="f_f" format="1">
  <advance width="560"/>
  <outline>
    <contour>
      <point x="388" y="-20" type="line"/>
      <point x="368" y="372" type="line"/>
      <point x="520" y="389" type="line"/>
      <point x="520" y="447" type="line"/>
      <point x="385" y="447" type="line"/>
      <point x="385" y="616" type="line"/>
      <point x="520" y="628" type="line"/>
      <point x="520" y="690" type="line"/>
      <point x="306" y="710" type="line"/>
      <point x="306" y="651" type="line"/>
      <point x="157" y="663" type="line"/>
      <point x="55" y="608" type="line"/>
      <point x="55" y="-20" type="line"/>
      <point x="137" y="-20" type="line"/>
      <point x="117" y="372" type="line"/>
      <point x="306" y="387" type="line"/>
      <point x="306" y="-20" type="line"/>
    </contour>
    <contour>
      <point x="144" y="578" type="line"/>
      <point x="306" y="587" type="line"/>
      <point x="306" y="447" type="line"/>
      <point x="134" y="447" type="line"/>
    </contour>
  </outline>
</glyph>
<glyph name="five.ss01" format="1">
  <advance width="339"/>
  <outline>
    <contour>
      <point x="289" y="638" type="line"/>
      <point x="289" y="710" type="line"/>
      <point x="58" y="710" type="line"/>
      <point x="58" y="408" type="line"/>
      <point x="100" y="356" type="line"/>
      <point x="217" y="356" type="line" smooth="yes"/>
      <point x="225" y="356"/>
      <point x="229" y="354"/>
      <point x="229" y="350" type="curve" smooth="yes"/>
      <point x="225" y="82" type="line" smooth="yes"/>
      <point x="225" y="75"/>
      <point x="219" y="65"/>
      <point x="210" y="65" type="curve"/>
      <point x="126" y="74" type="line"/>
      <point x="122" y="178" type="line"/>
      <point x="70" y="178" type="line"/>
      <point x="58" y="0" type="line"/>
      <point x="251" y="0" type="line"/>
      <point x="293" y="21" type="line"/>
      <point x="298" y="390" type="line"/>
      <point x="277" y="434" type="line"/>
      <point x="134" y="435" type="line"/>
      <point x="125" y="629" type="line"/>
    </contour>
  </outline>
</glyph>
<glyph name="four.ss01" format="1">
  <advance width="339"/>
  <outline>
    <contour>
      <point x="275" y="-9" type="line"/>
      <point x="275" y="202" type="line"/>
      <point x="327" y="202" type="line"/>
      <point x="328" y="274" type="line"/>
      <point x="275" y="270" type="line"/>
      <point x="275" y="721" type="line"/>
      <point x="179" y="734" type="line"/>
      <point x="21" y="242" type="line"/>
      <point x="35" y="200" type="line"/>
      <point x="199" y="200" type="line"/>
      <point x="200" y="0" type="line"/>
    </contour>
    <contour>
      <point x="98" y="255" type="line"/>
      <point x="211" y="658" type="line"/>
      <point x="216" y="658" type="line"/>
      <point x="196" y="266" type="line"/>
    </contour>
  </outline>
</glyph>
<glyph name="i.loclTRK" format="1">
  <advance width="175"/>
  <outline>
    <contour>
      <point x="49" y="802" type="line"/>
      <point x="138" y="805" type="line"/>
      <point x="138" y="900" type="line"/>
      <point x="45" y="900" type="line"/>
    </contour>
    <component base="i"/>
  </outline>
</glyph>
<glyph name="lslash.alt" format="1">
  <advance width="209"/>
  <outline>
    <contour>
      <point x="214" y="409" type="line"/>
      <point x="185" y="453" type="line"/>
      <point x="-7" y="325" type="line"/>
      <point x="27" y="277" type="line"/>
    </contour>
    <component base="l.alt" xOffset="22"/>
  </outline>
</glyph>
<glyph name="nacute.loclPLK" format="1">
  <advance width="335"/>
  <outline>
    <contour>
      <point x="275" y="-20" type="line"/>
      <point x="207" y="-20" type="line"/>
      <point x="109" y="554" type="line"/>
      <point x="105" y="554" type="line"/>
      <point x="86" y="-20" type="line"/>
      <point x="35" y="-20" type="line"/>
      <point x="67" y="710" type="line"/>
      <point x="128" y="710" type="line"/>
      <point x="229" y="131" type="line"/>
      <point x="236" y="131" type="line"/>
      <point x="236" y="710" type="line"/>
      <point x="295" y="710" type="line"/>
    </contour>
    <contour>
      <point x="151" y="769" type="line"/>
      <point x="192" y="761" type="line"/>
      <point x="245" y="877" type="line"/>
      <point x="182" y="897" type="line"/>
    </contour>
  </outline>
</glyph>
<glyph name="nine.ss01" format="1">
  <advance width="339"/>
  <outline>
    <contour>
      <point x="97" y="301" type="line"/>
      <point x="228" y="301" type="line"/>
      <point x="228" y="88" type="line"/>
      <point x="198" y="54" type="line"/>
      <point x="145" y="54" type="line"/>
      <point x="140" y="128" type="line"/>
      <point x="68" y="128" type="line"/>
      <point x="69" y="0" type="line"/>
      <point x="260" y="0" type="line"/>
      <point x="285" y="23" type="line"/>
      <point x="300" y="684" type="line"/>
      <point x="272" y="710" type="line"/>
      <point x="106" y="710" type="line"/>
      <point x="67" y="675" type="line"/>
      <point x="67" y="327" type="line"/>
    </contour>
    <contour>
      <point x="131" y="650" type="line"/>
      <point x="225" y="646" type="line"/>
      <point x="225" y="350" type="line"/>
      <point x="131" y="359" type="line"/>
    </contour>
  </outline>
</glyph>
<glyph name="oslash.alt" format="1">
  <advance width="291"/>
  <outline>
    <contour>
      <point x="61" y="-63" type="line"/>
      <point x="82" y="4" type="line"/>
      <point x="92" y="1"/>
      <point x="105" y="0"/>
      <point x="121" y="0" type="curve" smooth="yes"/>
      <point x="239" y="0" type="line"/>
      <point x="246" y="530" type="line"/>
      <point x="278" y="633" type="line"/>
      <point x="241" y="649" type="line"/>
      <point x="218" y="577" type="line"/>
      <point x="207" y="582"/>
      <point x="194" y="585"/>
      <point x="180" y="585" type="curve" smooth="yes"/>
      <point x="109" y="585"/>
      <point x="70" y="577"/>
      <point x="45" y="561" type="curve"/>
      <point x="45" y="56" type="line"/>
      <point x="46" y="43" type="line"/>
      <point x="17" y="-46" type="line"/>
    </contour>
    <contour>
      <point x="106" y="82" type="line"/>
      <point x="181" y="323" type="line"/>
      <point x="178" y="60" type="line"/>
      <point x="169" y="51" type="line"/>
      <point x="106" y="57" type="line"/>
    </contour>
    <contour>
      <point x="112" y="521" type="line"/>
      <point x="121" y="527" type="line"/>
      <point x="175" y="524" type="line"/>
      <point x="184" y="523"/>
      <point x="184" y="521"/>
      <point x="184" y="518" type="curve" smooth="yes"/>
      <point x="183" y="470" type="line"/>
      <point x="108" y="237" type="line"/>
    </contour>
    <contour>
      <point x="151" y="582" type="move" name="top"/>
    </contour>
    <contour>
      <point x="143" y="0" type="move" name="bottom"/>
    </contour>
  </outline>
</glyph>
<glyph name="p.alt" format="1">
  <advance width="296"/>
  <outline>
    <contour>
      <point x="116" y="0" type="line"/>
      <point x="118" y="-128" type="line"/>
      <point x="44" y="-128" type="line"/>
      <point x="50" y="526" type="line"/>
      <point x="32" y="544" type="line"/>
      <point x="32" y="582" type="line"/>
      <point x="198" y="582" type="line" smooth="yes"/>
      <point x="238" y="582"/>
      <point x="249" y="570"/>
      <point x="249" y="546" type="curve" smooth="yes"/>
      <point x="251" y="54" type="line" smooth="yes"/>
      <point x="251" y="19"/>
      <point x="233" y="0"/>
      <point x="209" y="0" type="curve" smooth="yes"/>
    </contour>
    <contour>
      <point x="178" y="513" type="line"/>
      <point x="178" y="517"/>
      <point x="178" y="519"/>
      <point x="169" y="519" type="curve" smooth="yes"/>
      <point x="127" y="519" type="line" smooth="yes"/>
      <point x="118" y="519"/>
      <point x="118" y="517"/>
      <point x="118" y="513" type="curve" smooth="yes"/>
      <point x="118" y="71" type="line" smooth="yes"/>
      <point x="118" y="65"/>
      <point x="122" y="62"/>
      <point x="127" y="62" type="curve" smooth="yes"/>
      <point x="179" y="62" type="line" smooth="yes"/>
      <point x="188" y="62"/>
      <point x="188" y="65"/>
      <point x="188" y="71" type="curve"/>
    </contour>
  </outline>
</glyph>
<glyph name="seven.ss01" format="1">
  <advance width="339"/>
  <outline>
    <contour>
      <point x="54" y="538" type="line"/>
      <point x="109" y="538" type="line"/>
      <point x="114" y="615" type="line"/>
      <point x="259" y="615" type="line"/>
      <point x="206" y="388" type="line"/>
      <point x="94" y="388" type="line"/>
      <point x="94" y="387" type="line"/>
      <point x="96" y="331" type="line"/>
      <point x="190" y="322" type="line"/>
      <point x="100" y="-8" type="line"/>
      <point x="171" y="-21" type="line"/>
      <point x="255" y="316" type="line"/>
      <point x="316" y="311" type="line"/>
      <point x="328" y="387" type="line"/>
      <point x="278" y="387" type="line"/>
      <point x="346" y="664" type="line"/>
      <point x="337" y="690" type="line"/>
      <point x="39" y="690" type="line"/>
    </contour>
  </outline>
</glyph>
<glyph name="t.alt" format="1">
  <advance width="238"/>
  <outline>
    <contour>
      <point x="20" y="528" type="line"/>
      <point x="63" y="528" type="line"/>
      <point x="56" y="49" type="line" smooth="yes"/>
      <point x="55" y="21"/>
      <point x="76" y="0"/>
      <point x="99" y="0" type="curve" smooth="yes"/>
      <point x="221" y="0" type="line"/>
      <point x="221" y="51" type="line"/>
      <point x="133" y="61" type="line"/>
      <point x="122" y="506" type="line" smooth="yes"/>
      <point x="122" y="517"/>
      <point x="127" y="522"/>
      <point x="135" y="522" type="curve" smooth="yes"/>
      <point x="226" y="522" type="line"/>
      <point x="226" y="582" type="line"/>
      <point x="128" y="582" type="line"/>
      <point x="134" y="710" type="line"/>
      <point x="91" y="710" type="line"/>
      <point x="65" y="690" type="line"/>
      <point x="64" y="582" type="line"/>
      <point x="20" y="582" type="line"/>
    </contour>
    <contour>
      <point x="134" y="582" type="move" name="top"/>
    </contour>
    <contour>
      <point x="140" y="0" type="move" name="bottom"/>
    </contour>
  </outline>
</glyph>
<glyph name="thorn.alt" format="1">
  <advance width="278"/>
  <outline>
    <contour>
      <point x="108" y="710" type="line"/>
      <point x="58" y="710" type="line"/>
      <point x="28" y="-130" type="line"/>
      <point x="74" y="-130" type="line"/>
      <point x="95" y="96" type="line"/>
      <point x="215" y="107" type="line"/>
      <point x="250" y="169" type="line"/>
      <point x="239" y="479" type="line" smooth="yes"/>
      <point x="238" y="494"/>
      <point x="218" y="500"/>
      <point x="203" y="500" type="curve" smooth="yes"/>
      <point x="160" y="500" type="line" smooth="yes"/>
      <point x="147" y="500"/>
      <point x="123" y="497"/>
      <point x="108" y="494" type="curve"/>
    </contour>
    <contour>
      <point x="182" y="167"/>
      <point x="180" y="165"/>
      <point x="176" y="165" type="curve"/>
      <point x="111" y="162" type="line"/>
      <point x="111" y="448" type="line"/>
      <point x="167" y="455" type="line"/>
      <point x="182" y="440" type="line"/>
      <point x="182" y="171" type="line" smooth="yes"/>
    </contour>
  </outline>
</glyph>
<glyph name="three.ss01" format="1">
  <advance width="339"/>
  <outline>
    <contour>
      <point x="62" y="710" type="line"/>
      <point x="213" y="710" type="line" smooth="yes"/>
      <point x="251" y="710"/>
      <point x="281" y="680"/>
      <point x="281" y="655" type="curve" smooth="yes"/>
      <point x="281" y="441" type="line"/>
      <point x="158" y="382" type="line"/>
      <point x="284" y="334" type="line"/>
      <point x="284" y="69" type="line" smooth="yes"/>
      <point x="285" y="24"/>
      <point x="246" y="0"/>
      <point x="211" y="0" type="curve" smooth="yes"/>
      <point x="54" y="0" type="line"/>
      <point x="54" y="37" type="line"/>
      <point x="81" y="69" type="line"/>
      <point x="211" y="69" type="line"/>
      <point x="199" y="291" type="line"/>
      <point x="84" y="346" type="line"/>
      <point x="84" y="408" type="line"/>
      <point x="200" y="476" type="line"/>
      <point x="210" y="631" type="line"/>
      <point x="62" y="659" type="line"/>
    </contour>
  </outline>
</glyph>
<glyph name="uni01CA.alt" format="1">
  <advance width="595"/>
  <outline>
    <contour>
      <point x="200" y="-20" type="line"/>
      <point x="268" y="-20" type="line"/>
      <point x="288" y="710" type="line"/>
      <point x="229" y="710" type="line"/>
      <point x="229" y="131" type="line"/>
      <point x="222" y="131" type="line"/>
      <point x="121" y="710" type="line"/>
      <point x="60" y="710" type="line"/>
      <point x="28" y="-20" type="line"/>
      <point x="79" y="-20" type="line"/>
      <point x="98" y="554" type="line"/>
      <point x="102" y="554" type="line"/>
    </contour>
    <contour>
      <point x="404" y="0" type="curve"/>
      <point x="540" y="0" type="line"/>
      <point x="559" y="710" type="line"/>
      <point x="522" y="710" type="line"/>
      <point x="482" y="696" type="line"/>
      <point x="482" y="89" type="line"/>
      <point x="407" y="94" type="line"/>
      <point x="402" y="172" type="line"/>
      <point x="353" y="172" type="line"/>
      <point x="361" y="38" type="line" smooth="yes"/>
      <point x="362" y="19"/>
      <point x="385" y="0"/>
    </contour>
  </outline>
</glyph>
<glyph name="uni0237.alt" format="1">
  <advance width="167"/>
  <outline>
    <contour>
      <point x="-57" y="-129" type="line"/>
      <point x="81" y="-129" type="line"/>
      <point x="124" y="-80" type="line"/>
      <point x="113" y="582" type="line"/>
      <point x="39" y="582" type="line"/>
      <point x="39" y="541" type="line"/>
      <point x="52" y="516" type="line"/>
      <point x="52" y="-56" type="line" smooth="yes"/>
      <point x="52" y="-61"/>
      <point x="50" y="-65"/>
      <point x="46" y="-65" type="curve" smooth="yes"/>
      <point x="-57" y="-74" type="line"/>
    </contour>
  </outline>
</glyph>
<glyph name="uni0272.alt" format="1">
  <advance width="291"/>
  <outline>
    <contour>
      <point x="73" y="-119" type="line"/>
      <point x="116" y="-70" type="line"/>
      <point x="116" y="520" type="line"/>
      <point x="176" y="522" type="line" smooth="yes"/>
      <point x="185" y="522"/>
      <point x="185" y="519"/>
      <point x="185" y="513" type="curve" smooth="yes"/>
      <point x="174" y="22" type="line"/>
      <point x="174" y="22"/>
      <point x="186" y="0"/>
      <point x="200" y="0" type="curve" smooth="yes"/>
      <point x="246" y="0" type="line"/>
      <point x="246" y="554" type="line"/>
      <point x="206" y="582" type="line"/>
      <point x="28" y="582" type="line"/>
      <point x="28" y="534" type="line"/>
      <point x="49" y="522" type="line"/>
      <point x="48" y="-46" type="line" smooth="yes"/>
      <point x="48" y="-51"/>
      <point x="46" y="-54"/>
      <point x="42" y="-55" type="curve"/>
      <point x="-28" y="-64" type="line"/>
      <point x="-28" y="-119" type="line"/>
    </contour>
  </outline>
</glyph>
<glyph name="uni1E9E.alt" format="1">
  <advance width="417"/>
  <outline>
    <contour>
      <point x="44" y="0" type="line"/>
      <point x="115" y="0" type="line"/>
      <point x="110" y="645" type="line"/>
      <point x="272" y="655" type="line"/>
      <point x="221" y="568"/>
      <point x="184" y="520"/>
      <point x="184" y="500" type="curve" smooth="yes"/>
      <point x="184" y="328" type="line"/>
      <point x="290" y="288" type="line"/>
      <point x="310" y="64" type="line"/>
      <point x="187" y="64" type="line"/>
      <point x="187" y="0" type="line"/>
      <point x="315" y="0" type="line" smooth="yes"/>
      <point x="339" y="0"/>
      <point x="368" y="26"/>
      <point x="368" y="49" type="curve" smooth="yes"/>
      <point x="368" y="336" type="line"/>
      <point x="252" y="378" type="line"/>
      <point x="239" y="484" type="line"/>
      <point x="359" y="641" type="line"/>
      <point x="286" y="710" type="line"/>
      <point x="87" y="710" type="line" smooth="yes"/>
      <point x="61" y="710"/>
      <point x="44" y="692"/>
      <point x="44" y="661" type="curve"/>
    </contour>
  </outline>
</glyph>
<glyph name="uni1EF9.loclGUA" format="1">
  <advance width="261"/>
  <outline>
    <contour>
      <point x="208" y="0" type="line"/>
      <point x="68" y="0" type="line"/>
      <point x="58" y="36" type="line"/>
      <point x="162" y="55" type="line"/>
      <point x="162" y="312" type="line"/>
      <point x="78" y="324" type="line"/>
      <point x="15" y="710" type="line"/>
      <point x="86" y="710" type="line"/>
      <point x="120" y="383" type="line"/>
      <point x="148" y="385" type="line"/>
      <point x="178" y="690" type="line"/>
      <point x="228" y="690" type="line"/>
    </contour>
    <contour>
      <point x="66" y="897"/>
      <point x="54" y="892"/>
      <point x="43" y="883" type="curve" smooth="yes"/>
      <point x="17" y="860" type="line"/>
      <point x="20" y="791" type="line"/>
      <point x="88" y="844" type="line"/>
      <point x="132" y="813" type="line" smooth="yes"/>
      <point x="149" y="801"/>
      <point x="162" y="794"/>
      <point x="177" y="794" type="curve" smooth="yes"/>
      <point x="189" y="794"/>
      <point x="208" y="805"/>
      <point x="221" y="817" type="curve" smooth="yes"/>
      <point x="245" y="840" type="line"/>
      <point x="245" y="900" type="line"/>
      <point x="173" y="852" type="line"/>
      <point x="135" y="877" type="line" smooth="yes"/>
      <point x="119" y="888"/>
      <point x="100" y="897"/>
      <point x="81" y="897" type="curve" smooth="yes"/>
    </contour>
  </outline>
</glyph>
<glyph name="yacute.loclGUA" format="1">
  <advance width="261"/>
  <outline>
    <contour>
      <point x="208" y="0" type="line"/>
      <point x="68" y="0" type="line"/>
      <point x="58" y="36" type="line"/>
      <point x="162" y="55" type="line"/>
      <point x="162" y="312" type="line"/>
      <point x="78" y="324" type="line"/>
      <point x="15" y="710" type="line"/>
      <point x="86" y="710" type="line"/>
      <point x="120" y="383" type="line"/>
      <point x="148" y="385" type="line"/>
      <point x="178" y="690" type="line"/>
      <point x="228" y="690" type="line"/>
    </contour>
    <contour>
      <point x="84" y="792" type="line"/>
      <point x="118" y="768" type="line"/>
      <point x="214" y="852" type="line"/>
      <point x="168" y="900" type="line"/>
    </contour>
  </outline>
</glyph>
<glyph name="z.alt" format="1">
  <advance width="232"/>
  <outline>
    <contour>
      <point x="20" y="27" type="line"/>
      <point x="35" y="0" type="line"/>
      <point x="219" y="0" type="line"/>
      <point x="219" y="53" type="line"/>
      <point x="103" y="46" type="line"/>
      <point x="202" y="582" type="line"/>
      <point x="33" y="582" type="line"/>
      <point x="33" y="529" type="line"/>
      <point x="132" y="521" type="line"/>
    </contour>
    <contour>
      <point x="121" y="582" type="move" name="top"/>
    </contour>
    <contour>
      <point x="120" y="0" type="move" name="bottom"/>
    </contour>
  </outline>
</glyph>
<glyph name="zero.ss01" format="1">
  <advance width="339"/>
  <outline>
    <contour>
      <point x="290" y="59" type="line"/>
      <point x="289" y="689" type="line"/>
      <point x="258" y="730" type="line"/>
      <point x="81" y="730" type="line"/>
      <point x="50" y="704" type="line"/>
      <point x="50" y="57" type="line"/>
      <point x="90" y="20" type="line"/>
      <point x="262" y="20" type="line"/>
    </contour>
    <contour>
      <point x="212" y="667" type="line"/>
      <point x="220" y="667"/>
      <point x="227" y="660"/>
      <point x="227" y="655" type="curve" smooth="yes"/>
      <point x="227" y="85" type="line" smooth="yes"/>
      <point x="227" y="80"/>
      <point x="223" y="77"/>
      <point x="215" y="74" type="curve"/>
      <point x="147" y="74" type="line"/>
    </contour>
    <contour>
      <point x="118" y="658" type="line" smooth="yes"/>
      <point x="118" y="661"/>
      <point x="124" y="667"/>
      <point x="131" y="667" type="curve" smooth="yes"/>
      <point x="195" y="667" type="line"/>
      <point x="128" y="74" type="line"/>
      <point x="121" y="74"/>
      <point x="118" y="77"/>
      <point x="118" y="80" type="curve"/>
    </contour>
  </outline>
</glyph>
